<?xml version="1.0" standalone="no"?>
<!DOCTYPE svg PUBLIC "-//W3C//DTD SVG 1.1//EN" "http://www.w3.org/Graphics/SVG/1.1/DTD/svg11.dtd" >
<svg xmlns="http://www.w3.org/2000/svg">
<metadata></metadata>
<defs>
<font id="snippetregular" horiz-adv-x="1064" >
<font-face units-per-em="2048" ascent="1638" descent="-410" />
<missing-glyph horiz-adv-x="614" />
<glyph horiz-adv-x="2048" />
<glyph horiz-adv-x="2048" />
<glyph unicode="&#xd;" horiz-adv-x="614" />
<glyph unicode=" "  horiz-adv-x="614" />
<glyph unicode="&#x09;" horiz-adv-x="614" />
<glyph unicode="&#xa0;" horiz-adv-x="614" />
<glyph unicode="!" horiz-adv-x="552" d="M246 489q0 33 5 90.5t13 128t18.5 148.5t22.5 156q25 180 60 389h118q-35 -209 -61 -389q-12 -78 -22.5 -156t-19.5 -148.5t-14.5 -128t-5.5 -90.5q0 -43 11 -77q4 -18 10 -33l-115 -25q-6 16 -10 39q-10 41 -10 96zM260 92q0 47 34 82t81 35q49 0 83 -35t34 -82t-34 -81 t-83 -34q-47 0 -81 34t-34 81z" />
<glyph unicode="&#x22;" horiz-adv-x="577" d="M102 1401h148l-21 -393h-106zM328 1401h147l-20 -393h-107z" />
<glyph unicode="#" horiz-adv-x="950" d="M82 377v110h158l41 220h-148v110h172l74 367h119l-72 -367h190l72 367h119l-72 -367h133v-110h-157l-41 -220h147v-110h-170l-76 -377h-118l73 377h-190l-74 -377h-119l74 377h-135zM360 487h189l41 220h-189z" />
<glyph unicode="$" horiz-adv-x="1140" d="M82 131l68 98q66 -41 152.5 -80.5t193.5 -52.5v563q-66 20 -128.5 49t-109.5 73t-75.5 107.5t-28.5 155.5q0 59 23.5 112.5t68.5 94.5t107.5 69t142.5 36v180h118v-180q117 -10 219.5 -51t180.5 -97l-68 -98q-66 41 -147.5 79t-184.5 52v-496q74 -23 145.5 -50t129 -71 t93.5 -111t36 -167q0 -90 -34 -155.5t-89 -109.5t-128 -67.5t-153 -29.5v-127h-118v125q-121 8 -228.5 49t-185.5 100zM281 1044q0 -53 16 -94t46 -71.5t69 -52t84 -40.5v459q-104 -10 -159.5 -66.5t-55.5 -134.5zM614 94q57 4 107.5 20.5t88.5 46t59.5 74.5t21.5 111 q0 61 -22.5 105.5t-60.5 75t-88 53t-106 41.5v-527z" />
<glyph unicode="%" horiz-adv-x="1536" d="M205 1053q0 66 17.5 121t49 96t77.5 64.5t102 23.5q55 0 100 -23.5t78 -64.5t50 -97.5t17 -119.5q0 -66 -17 -121t-50 -95t-78 -63.5t-100 -23.5t-101.5 23.5t-78 63.5t-49 95t-17.5 121zM315 1053q0 -98 37 -160t99 -62q61 0 98 61.5t37 160.5q0 98 -37 160.5t-98 62.5 t-98.5 -62.5t-37.5 -160.5zM565 0l449 1337h119l-447 -1337h-121zM1004 283q0 66 17 121t49 96t78 64.5t101 23.5t100.5 -23.5t78 -64.5t50 -97.5t17.5 -119.5q0 -66 -17.5 -121.5t-50 -95t-78 -63t-100.5 -23.5t-101 23.5t-78 63t-49 95t-17 121.5zM1114 283q0 -98 37 -160 t98 -62t98 61.5t37 160.5q0 98 -37 160.5t-98 62.5t-98 -62.5t-37 -160.5z" />
<glyph unicode="&#x26;" horiz-adv-x="1241" d="M123 340q0 55 14.5 110.5t42 106.5t70.5 93t100 71q-47 53 -75.5 116.5t-28.5 145.5q0 63 22.5 120.5t66.5 100.5t112.5 68.5t160.5 25.5q61 0 112.5 -5t121.5 -11v-106q-80 6 -137.5 11t-110.5 5q-61 0 -102 -16.5t-66 -45t-36 -66.5t-11 -81q0 -55 24.5 -104.5 t62.5 -94.5t85 -86t92 -82l309 -290q41 72 61.5 154.5t20.5 168.5v82h109v-86q0 -106 -28 -206.5t-81 -186.5l187 -174l-74 -84l-182 168q-78 -84 -188.5 -133t-254.5 -49q-84 0 -156.5 24.5t-127 71.5t-85 113.5t-30.5 150.5zM240 348q0 -61 22.5 -110.5t61 -83t90 -51 t108.5 -17.5q119 0 209 40t154 107l-305 283l-150 127q-98 -45 -144 -127t-46 -168z" />
<glyph unicode="'" horiz-adv-x="352" d="M102 1401h148l-21 -393h-106z" />
<glyph unicode="(" horiz-adv-x="784" d="M102 602q0 139 32 274.5t97.5 257t165 225t234.5 177.5l51 -88q-98 -57 -182 -149.5t-144.5 -205t-94.5 -239.5t-34 -252t34 -251t94.5 -238.5t144.5 -204.5t182 -150l-51 -88q-135 74 -234.5 177.5t-165 225.5t-97.5 256t-32 273z" />
<glyph unicode=")" horiz-adv-x="845" d="M164 -242q98 57 182 149.5t144.5 205t94 238.5t33.5 251t-33.5 252t-94 239.5t-144.5 205t-182 149.5l51 88q135 -74 234.5 -177.5t165 -225t97 -257t31.5 -274.5t-31.5 -273t-97 -256t-165 -225.5t-234.5 -177.5z" />
<glyph unicode="*" horiz-adv-x="849" d="M123 1151l39 117l215 -84l-12 237h122l-14 -239l219 86l35 -117l-213 -59l137 -166l-100 -70l-125 193l-127 -197l-98 74l139 168z" />
<glyph unicode="+" horiz-adv-x="966" d="M102 549v104h324v328h115v-328h323v-104h-323v-330h-115v330h-324z" />
<glyph unicode="," horiz-adv-x="509" d="M123 -260q41 43 61.5 102.5t20.5 141.5v122q0 29 18.5 48.5t46.5 19.5q29 0 47.5 -19.5t18.5 -48.5v-122q0 -86 -33 -171t-110 -141z" />
<glyph unicode="-" horiz-adv-x="1017" d="M205 567v117h608v-117h-608z" />
<glyph unicode="." horiz-adv-x="641" d="M205 92q0 47 33.5 82t80.5 35q49 0 83 -35t34 -82t-33.5 -81t-83.5 -34q-47 0 -80.5 34t-33.5 81z" />
<glyph unicode="/" horiz-adv-x="802" d="M102 -143l449 1679h129l-447 -1679h-131z" />
<glyph unicode="0" horiz-adv-x="1396" d="M143 668q0 147 40 273t112 219t174 145.5t229 52.5q125 0 228.5 -53.5t175.5 -145.5t111.5 -218t39.5 -273t-39.5 -273.5t-111.5 -218.5t-175.5 -144t-228.5 -52q-127 0 -229 53t-174 145t-112 218t-40 272zM272 668q0 -127 31 -232.5t87 -182.5t135 -119t175 -42 q94 0 173 42t135.5 118t87 182.5t30.5 233.5t-30.5 233.5t-87 183t-135.5 118.5t-173 42q-96 0 -175 -42t-135 -118.5t-87 -182t-31 -234.5z" />
<glyph unicode="1" horiz-adv-x="794" d="M20 1067l25 88q31 -6 59 -6q90 0 193 57q66 37 123 76t133 88h16v-1370h-125v1174q-53 -43 -92 -66q-49 -29 -105.5 -47.5t-115.5 -18.5q-55 0 -111 25z" />
<glyph unicode="2" horiz-adv-x="1005" d="M51 0v27q0 121 52.5 215t131 170.5t171 144.5t171 134.5t131 139t52.5 162.5q0 123 -68.5 190.5t-202.5 67.5q-27 0 -72.5 -1t-99 -4t-106.5 -6t-92 -5v106q35 2 83 5.5t99 6.5t97 4t77 1q109 0 185.5 -27.5t125 -77t70 -117t21.5 -149.5q0 -102 -46.5 -183t-116 -149.5 t-153.5 -128t-161.5 -122t-137 -132t-80.5 -155.5h762v-117h-893z" />
<glyph unicode="3" horiz-adv-x="1021" d="M72 2v111q49 -6 104 -11q47 -4 108.5 -7t131.5 -3q86 0 152.5 15.5t113.5 50.5t71.5 90t24.5 137q0 59 -16.5 109.5t-40 90.5t-51 69.5t-49.5 50.5q-61 -23 -136 -34.5t-161 -11.5h-39v113h43q72 0 140.5 7t122.5 32t87 73t33 130q0 123 -69 180t-202 57q-27 0 -69.5 -1 t-92 -4t-99.5 -6t-89 -5v106q35 2 80 5.5t92 6.5t90 4t74 1q109 0 185.5 -24.5t124.5 -69.5t69.5 -109.5t21.5 -146.5q0 -86 -27.5 -145.5t-78.5 -100.5q27 -23 57.5 -57.5t57 -82t45 -108.5t18.5 -137q0 -203 -127 -300t-350 -97q-59 0 -120.5 3t-113.5 7q-59 6 -116 12z " />
<glyph unicode="4" horiz-adv-x="1200" d="M143 485l123 852h125l-106 -735h616v735h125v-1337h-125v485h-758z" />
<glyph unicode="5" horiz-adv-x="1052" d="M31 1329l67 70q43 -41 102.5 -57.5t141.5 -16.5q96 0 185 1t161 5q82 2 156 6v-116q-72 -2 -154 -4q-72 -2 -161 -3.5t-187 -1.5h-57v-393q25 4 53 10q25 4 57.5 7.5t73.5 3.5q221 0 351 -100.5t130 -317.5q0 -94 -30.5 -175t-90 -140.5t-149.5 -93t-207 -33.5 q-59 0 -120.5 3t-112.5 7q-59 6 -117 12v113q49 -6 104 -11q47 -4 108.5 -7t131.5 -3q186 0 274 91t88 245q0 84 -28.5 141.5t-79.5 91t-123 48t-160 14.5q-55 0 -104 -6t-86 -14q-43 -8 -78 -21l-10 8v543q-39 14 -72 36.5t-57 57.5z" />
<glyph unicode="6" horiz-adv-x="1206" d="M143 668q0 201 40 334t114 211.5t177.5 111.5t230.5 33q61 0 122.5 -5t130.5 -12v-106q-80 6 -147.5 11t-120.5 5q-115 0 -192.5 -38.5t-125.5 -107.5t-72 -165t-28 -211q53 23 144.5 47.5t210.5 24.5q117 0 199.5 -29t135 -80t77 -123.5t24.5 -158.5q0 -96 -25.5 -175 t-79 -136.5t-136.5 -88t-195 -30.5q-131 0 -223.5 53t-149.5 145t-84 218.5t-27 271.5zM272 618q4 -117 30 -214t71 -165.5t108.5 -107.5t147.5 -39q88 0 147.5 23.5t95 66.5t51 102.5t15.5 129.5q0 135 -74.5 204.5t-234.5 69.5q-111 0 -207 -25.5t-150 -44.5z" />
<glyph unicode="7" horiz-adv-x="946" d="M41 1329l68 70q43 -41 102 -56.5t141 -15.5q47 0 110.5 2t133.5 3t141.5 3t136.5 2v-16l-520 -1321h-131l490 1221q-100 -4 -197.5 -5.5t-163.5 -1.5q-43 0 -86 3.5t-84 15.5t-77.5 34.5t-63.5 61.5z" />
<glyph unicode="8" horiz-adv-x="1181" d="M133 373q0 74 22.5 132t57.5 105t77 84t83 68q-68 39 -117 102.5t-49 161.5q0 70 26.5 131.5t75.5 107.5t120 72.5t161 26.5q88 0 159.5 -27.5t121 -73.5t76 -107.5t26.5 -129.5q0 -51 -17.5 -94t-45 -79t-60.5 -64.5t-66 -49.5q49 -23 96.5 -54.5t85.5 -75.5t60.5 -102 t22.5 -134q0 -84 -29 -158t-85 -129t-142 -87t-201 -32t-201 32t-143.5 87t-86 129t-28.5 158zM260 377q0 -129 84 -214t248 -85t247 85t83 214q0 78 -35 131t-90.5 90t-125 60.5t-139.5 41.5l-45 13q-37 -31 -76.5 -66t-73.5 -76t-55.5 -89t-21.5 -105zM334 1024 q0 -55 26.5 -93t68.5 -62.5t93.5 -41t100.5 -30.5q10 -4 22 -7.5t27 -7.5q68 47 121 103.5t53 138.5q0 98 -69.5 162.5t-186.5 64.5t-186.5 -64.5t-69.5 -162.5z" />
<glyph unicode="9" horiz-adv-x="1206" d="M143 928q0 96 26 175t79 136t135 88t197 31q131 0 223 -53.5t149.5 -145.5t84 -218t26.5 -271q0 -201 -40 -334t-113.5 -212t-177 -111.5t-230.5 -32.5q-61 0 -123 5t-131 11v106q80 -6 147.5 -11t120.5 -5q113 0 190.5 38t127 107.5t72 166t26.5 210.5 q-51 -23 -143.5 -47t-208.5 -24q-117 0 -200 28.5t-135 79.5t-77 124t-25 159zM268 924q0 -135 75 -205t235 -70q111 0 207 24.5t147 45.5q-4 117 -28.5 214t-70 165.5t-110 107.5t-145.5 39q-88 0 -147.5 -23.5t-95.5 -66.5t-51.5 -102.5t-15.5 -128.5z" />
<glyph unicode=":" horiz-adv-x="641" d="M246 92q0 47 33.5 82t80.5 35q49 0 83 -35t34 -82t-33.5 -81t-83.5 -34q-47 0 -80.5 34t-33.5 81zM246 905q0 47 33.5 82t80.5 35q49 0 83 -35t34 -82t-33.5 -80.5t-83.5 -33.5q-47 0 -80.5 33.5t-33.5 80.5z" />
<glyph unicode=";" horiz-adv-x="641" d="M211 -260q41 43 61.5 102.5t20.5 141.5v122q0 29 18.5 48.5t46.5 19.5q29 0 47.5 -19.5t18.5 -48.5v-122q0 -86 -33 -171t-110 -141zM246 905q0 47 33.5 82t80.5 35q49 0 83 -35t34 -82t-33.5 -80.5t-83.5 -33.5q-47 0 -80.5 33.5t-33.5 80.5z" />
<glyph unicode="&#x3c;" horiz-adv-x="800" d="M61 543l545 379l66 -97l-402 -278l406 -283l-70 -100z" />
<glyph unicode="=" horiz-adv-x="966" d="M123 383v106h721v-106h-721zM123 711v106h721v-106h-721z" />
<glyph unicode="&#x3e;" horiz-adv-x="800" d="M123 821l70 101l544 -379l-544 -379l-66 96l401 279z" />
<glyph unicode="?" horiz-adv-x="880" d="M102 1300v107q35 2 83 5t99.5 6t97.5 4t77 1q109 0 185.5 -27.5t124.5 -76.5t69.5 -116.5t21.5 -149.5q0 -86 -32.5 -146.5t-81 -105.5t-105.5 -79t-105.5 -66.5t-81 -71.5t-32.5 -95q0 -43 10 -77q4 -18 10 -33l-120 -25q-6 16 -11 39q-10 41 -10 96q0 80 33 133.5 t82 93.5t106.5 70.5t106.5 67.5t81.5 85t32.5 120q0 123 -68.5 190.5t-201.5 67.5q-27 0 -73 -1t-99 -4t-106.5 -6t-92.5 -6zM330 92q0 47 33.5 82t80.5 35q49 0 83 -35t34 -82t-33.5 -81t-83.5 -34q-47 0 -80.5 34t-33.5 81z" />
<glyph unicode="@" horiz-adv-x="1554" d="M184 477q0 141 42 260t121 205t192.5 134t255.5 48q137 0 248.5 -44t191.5 -122.5t123 -189.5t43 -244q0 -86 -24.5 -150.5t-63.5 -107.5t-90.5 -64.5t-102.5 -21.5q-180 0 -209 168q-16 -53 -60 -90t-118 -37t-123 45t-49 131q0 47 21.5 80t57.5 52.5t80 28.5t89 9h82 v49q0 53 -28.5 84t-82.5 31q-41 0 -76.5 -14.5t-72.5 -34.5l-45 74q39 23 92 43t102 20q104 0 154.5 -50t50.5 -142v-189q0 -49 12.5 -80.5t33 -50t43.5 -27t46 -8.5q27 0 57.5 14.5t56.5 45t42 80t16 116.5q0 115 -36.5 208t-103.5 157.5t-158 99.5t-199 35 q-115 0 -207 -41t-157.5 -112.5t-100.5 -172t-35 -219.5q0 -115 37 -209t102.5 -159.5t157.5 -101.5t203 -36q135 0 238.5 29t160.5 47l29 -92q-31 -10 -78 -24.5t-104.5 -26.5t-120 -21.5t-125.5 -9.5q-137 0 -250 43t-193 122t-124 188.5t-44 244.5zM657 397 q0 -41 28 -66.5t71 -25.5q25 0 46 15.5t39.5 40t31 58.5t16.5 70h-80q-27 0 -54.5 -4t-49 -15t-35 -28.5t-13.5 -44.5z" />
<glyph unicode="A" horiz-adv-x="1300" d="M20 0l609 1440h39l612 -1440h-131l-199 465h-604l-194 -465h-132zM395 582h506l-203 477q-16 39 -29.5 83t-21.5 77q-8 -35 -20.5 -79t-28.5 -81z" />
<glyph unicode="B" horiz-adv-x="1265" d="M20 1413l68 70q43 -41 102.5 -61.5t141.5 -20.5q47 0 79.5 3t65.5 7t72.5 7t105.5 3q92 0 168 -26.5t130.5 -75.5t85 -116.5t30.5 -149.5q0 -111 -52 -185.5t-145 -115.5q119 -47 190 -146.5t71 -224.5q0 -92 -33 -166t-94.5 -127t-150.5 -82t-200 -29q-98 0 -173.5 3.5 t-129.5 7.5q-61 6 -108 12v1292q-66 10 -124.5 37t-99.5 84zM369 100q59 -4 132.5 -7t147.5 -3q172 0 267.5 78t95.5 221q0 61 -25.5 114.5t-71 93.5t-109 62.5t-138.5 24.5h-9h-290v-584zM369 797h284q129 0 211 66.5t82 189.5t-81 189.5t-216 66.5q-66 0 -104.5 -3 t-66 -6.5t-52.5 -7.5t-57 -4v-491z" />
<glyph unicode="C" horiz-adv-x="1318" d="M123 700q0 154 49 285t137 228.5t212 152.5t274 55q221 0 331.5 -77.5t110.5 -206.5q0 -57 -24.5 -105.5t-79 -84.5t-138.5 -55.5t-200 -19.5h-529q-18 -80 -18 -172h-125zM123 700h125q0 -135 29.5 -246.5t88 -191.5t145.5 -125t202 -45q63 0 131.5 17.5t131 42t114 52 t84.5 48.5l53 -92q-31 -25 -83 -56.5t-120 -59.5t-146.5 -46t-164.5 -18q-152 0 -263.5 55t-184 152.5t-107.5 229.5t-35 283zM299 979h496q92 0 152.5 10t96 30.5t50 50.5t14.5 67q0 86 -79.5 129t-233.5 43q-174 0 -302 -88t-194 -242z" />
<glyph unicode="D" horiz-adv-x="1574" d="M10 1413l68 70q43 -41 102.5 -61.5t141.5 -20.5q96 0 193 10t226 10q164 0 295 -55t223.5 -152.5t142.5 -228.5t50 -285t-50 -285.5t-142.5 -228t-223.5 -151.5t-295 -55q-158 0 -257 3t-154 7q-68 4 -97 10v1292q-66 10 -124 37t-99 84zM358 102q63 -4 156.5 -7 t226.5 -3q135 0 244 44t185.5 125t117.5 192.5t41 246.5t-41 247t-117.5 192t-185.5 125t-244 45q-113 0 -205 -9.5t-178 -11.5v-1186z" />
<glyph unicode="E" horiz-adv-x="1214" d="M195 0v1401h917v-117h-793v-485h650v-117h-650v-565h834v-117h-958z" />
<glyph unicode="F" horiz-adv-x="1132" d="M195 0v1401h917v-117h-793v-502h650v-116h-650v-666h-124z" />
<glyph unicode="G" horiz-adv-x="1411" d="M123 700q0 154 49 285t140 228.5t218 152.5t285 55q221 0 342 -77.5t121 -206.5q0 -57 -24.5 -105.5t-79 -84.5t-138.5 -55.5t-200 -19.5h-570q-18 -80 -18 -172q0 -135 30.5 -246.5t91 -191.5t151.5 -125t212 -45q135 0 213 48t117 111.5t48 126t9 93.5v170h121v-1153 h-121v666q-51 -72 -142 -123t-245 -51q-160 0 -275.5 55t-189 152.5t-109.5 229.5t-36 283zM301 979h535q92 0 152.5 10t96 30.5t50 50.5t14.5 67q0 86 -90 129t-244 43q-184 0 -316 -88t-198 -242z" />
<glyph unicode="H" horiz-adv-x="1394" d="M195 0v1401h124v-615h756v615h125v-1401h-125v670h-756v-670h-124z" />
<glyph unicode="I" horiz-adv-x="514" d="M195 0v1401h124v-1401h-124z" />
<glyph unicode="J" horiz-adv-x="919" d="M72 1284v117h653v-1022q0 -117 -19.5 -198t-55.5 -130t-84 -70.5t-105 -21.5q-63 0 -118.5 24.5t-97.5 76t-65.5 130t-23.5 189.5q0 236 116.5 361.5t339.5 144.5v399h-540zM279 379q0 -154 48 -232.5t134 -78.5q37 0 65.5 14t48 50t28.5 95.5t9 151.5v399 q-172 -16 -252.5 -111.5t-80.5 -287.5z" />
<glyph unicode="K" horiz-adv-x="1249" d="M195 0v1401h124v-631h328l-4 -14h2l2 14h6l398 647l106 -65l-373 -600q98 -29 154.5 -94.5t89.5 -153.5l180 -504h-131l-143 426q-18 57 -39 101t-53.5 73t-83.5 44t-131 15h-308v-659h-124z" />
<glyph unicode="L" horiz-adv-x="1030" d="M195 0v1401h124v-1284h670v-117h-794z" />
<glyph unicode="M" horiz-adv-x="1667" d="M195 0v1419h38l545 -694q14 -23 43 -49l613 743h39v-1419h-125v930q0 51 5 115.5t11 117.5q-43 -59 -90 -123.5t-86 -109.5l-279 -330q41 -29 87 -52.5t100 -35.5l-31 -92q-74 14 -135.5 44t-112.5 65.5t-92 75.5t-72 77l-200 248q-35 41 -75 98t-75 113q6 -51 11 -107.5 t5 -103.5v-930h-124z" />
<glyph unicode="N" horiz-adv-x="1564" d="M195 0v1421h38l945 -1126q14 -16 30.5 -35.5t38.5 -40.5q-4 41 -6 84t-2 84v1016h125v-1272q25 -14 51.5 -25.5t57.5 -17.5l-31 -92q-74 14 -131.5 43t-104.5 63.5t-85 73.5t-68 76l-586 680q-37 41 -80 100.5t-82 116.5q4 -53 9 -111.5t5 -105.5v-932h-124z" />
<glyph unicode="O" horiz-adv-x="1628" d="M123 700q0 154 49 286t140 228.5t218 151.5t285 55q129 0 236.5 -10t203.5 -10q82 0 141.5 20.5t102.5 62.5l68 -71q-47 -66 -119 -93.5t-145 -31.5q31 -41 66.5 -99.5t66 -132t50 -162.5t19.5 -194q0 -154 -49 -285.5t-140 -228t-218 -151.5t-283 -55q-158 0 -285 55 t-218 152.5t-140 228.5t-49 284zM248 700q0 -135 41 -246.5t115.5 -191.5t179 -125t231.5 -45t231.5 44t179 125t115.5 192.5t41 246.5q0 129 -30.5 230.5t-70.5 176.5t-79 121t-55 62q-76 4 -159 11.5t-175 7.5q-127 0 -231.5 -44t-178 -125t-114.5 -192.5t-41 -247.5z" />
<glyph unicode="P" horiz-adv-x="1142" d="M10 1413l68 70q43 -41 102.5 -61.5t141.5 -20.5q47 0 79.5 3t65.5 7t73 7t105 3q96 0 175 -33.5t134.5 -94t86 -141.5t30.5 -175q0 -96 -30.5 -177t-86 -141.5t-134.5 -94.5t-175 -34h-71.5t-57.5 2q-29 0 -53 3v112q25 -2 53 -2q25 -2 56.5 -2h66.5q70 0 127 24.5 t98 68.5t63.5 105.5t22.5 135.5t-22.5 134t-63.5 104.5t-98 69t-127 24.5q-66 0 -104.5 -3t-66.5 -6.5t-52.5 -7.5t-57.5 -4v-1288h-125v1292q-66 10 -124 37t-99 84z" />
<glyph unicode="Q" horiz-adv-x="1628" d="M123 700q0 154 49 286t140 228.5t218 151.5t285 55q156 0 283 -55t218 -152.5t140 -228.5t49 -285t-49 -285.5t-140 -228t-218 -151.5t-283 -55q-16 0 -29.5 1t-27.5 1l-121 -175l164 -55q59 -20 116.5 -30.5t124.5 -10.5q84 0 185 72l51 -90q-121 -88 -236 -88 q-78 0 -142 12t-124 33l-203 67l-86 -125l-88 68l242 340q-121 27 -216 91.5t-162.5 156.5t-103.5 206.5t-36 245.5zM248 700q0 -135 41 -246.5t115.5 -191.5t179 -125t231.5 -45t231.5 44t179 125t115.5 192.5t41 246.5t-41 247t-115.5 192t-179 125t-231.5 45t-231.5 -44 t-179 -125t-115.5 -192.5t-41 -247.5z" />
<glyph unicode="R" horiz-adv-x="1210" d="M10 1413l68 70q43 -41 102.5 -61.5t141.5 -20.5q47 0 79.5 3t65.5 7t73 7t105 3q92 0 168 -30.5t130 -85t85 -128t31 -161.5q0 -141 -69.5 -232.5t-188.5 -128.5q68 -31 109.5 -84t74.5 -129l184 -442h-135l-143 365q-23 57 -51.5 102t-68.5 76.5t-93 48t-123 16.5h-197 v-608h-125v1292q-66 10 -124 37t-99 84zM358 721h285q63 0 117.5 20.5t93.5 58.5t60.5 93t21.5 123q0 135 -81 214t-216 79q-66 0 -104.5 -3t-66.5 -6.5t-52.5 -7.5t-57.5 -4v-567z" />
<glyph unicode="S" horiz-adv-x="1089" d="M72 131l67 98q39 -25 84 -48t97.5 -43.5t109.5 -33t123 -12.5t125 13.5t104 43t72 77.5t27 120q0 74 -29 126t-76 90t-108.5 65.5t-126.5 52.5q-70 27 -140.5 56.5t-128 75.5t-93.5 114.5t-36 173.5q0 63 28 120.5t80 100.5t127 68.5t167 25.5q61 0 108 -2t76 -2 q70 0 110 15.5t83 56.5l67 -70q-29 -39 -57.5 -61.5t-60 -34.5t-66.5 -15.5t-76 -3.5q-35 0 -90.5 2.5t-114.5 2.5q-123 0 -188.5 -58.5t-65.5 -144.5q0 -76 29 -127t76 -86t107.5 -59.5t125.5 -47.5q70 -25 141.5 -58.5t129 -83.5t93.5 -121t36 -171t-41 -170t-107.5 -114 t-152.5 -63t-177 -19q-133 0 -252.5 44t-205.5 107z" />
<glyph unicode="T" horiz-adv-x="1165" d="M31 1284v117h1104v-117h-490v-1284h-125v1284h-489z" />
<glyph unicode="U" horiz-adv-x="1464" d="M184 547v854h125v-854q0 -106 31 -190.5t86 -142.5t133 -90t172 -32t173 32t134.5 90t86 142t30.5 191v854h125v-854q0 -127 -39 -230.5t-111.5 -179.5t-173 -116.5t-223.5 -40.5q-125 0 -226 40.5t-173 116.5t-111 179.5t-39 230.5z" />
<glyph unicode="V" horiz-adv-x="1349" d="M72 1391l121 30l342 -1142q25 -88 72.5 -139.5t129.5 -59.5l434 1341l117 -35l-452 -1402q-27 -6 -55.5 -9.5t-51.5 -3.5q-68 0 -119 23.5t-90 62.5t-65.5 89.5t-40.5 101.5z" />
<glyph unicode="W" horiz-adv-x="1990" d="M82 1393l121 30l295 -1144q23 -92 65.5 -142.5t126.5 -56.5l258 577v510h125v-510l176 -415q35 -84 79 -120t108 -42l366 1345l117 -34l-381 -1407q-27 -6 -55.5 -9.5t-50.5 -3.5q-61 0 -109.5 19.5t-85.5 51.5t-63.5 76t-45.5 93l-116 295l-234 -522q-27 -6 -55.5 -9.5 t-50.5 -3.5q-66 0 -115 23.5t-85 62.5t-59.5 88.5t-35.5 102.5z" />
<glyph unicode="X" horiz-adv-x="1200" d="M102 0l320 748q-47 45 -78 99t-47 97l-168 445l119 32l170 -446q29 -76 77 -128t148 -77l19 -6l290 657l119 -32l-299 -682q55 -43 89 -98.5t54 -104.5l203 -504h-131l-192 473q-35 88 -92.5 133t-149.5 68l-25 6l-290 -680h-136z" />
<glyph unicode="Y" horiz-adv-x="1089" d="M72 1393l121 30l198 -592q29 -92 90.5 -144t155.5 -54l274 788l117 -35l-295 -849q-23 -4 -51.5 -8.5t-52.5 -4.5v-524h-125v541q-92 31 -149.5 104.5t-84.5 155.5z" />
<glyph unicode="Z" horiz-adv-x="1107" d="M82 0v27l735 1257h-694v117h883v-27l-736 -1257h777v-117h-965z" />
<glyph unicode="[" horiz-adv-x="671" d="M102 -356v1892h488v-117h-363v-1659h363v-116h-488z" />
<glyph unicode="\" horiz-adv-x="802" d="M102 1536h129l449 -1679h-131z" />
<glyph unicode="]" horiz-adv-x="671" d="M82 -240h362v1659h-362v117h487v-1892h-487v116z" />
<glyph unicode="^" d="M154 743l358 517h41l358 -517l-102 -71l-281 401l-276 -397z" />
<glyph unicode="_" horiz-adv-x="901" d="M0 -160h901v-112h-901v112z" />
<glyph unicode="`" d="M334 1386l74 101l323 -256l-45 -70z" />
<glyph unicode="a" horiz-adv-x="1007" d="M82 272q0 86 38 143.5t99.5 93.5t138 50t156.5 14h199v115q0 127 -51.5 186.5t-161.5 59.5q-82 0 -166 -35t-137 -76l-56 86q59 53 156.5 92t202.5 39q172 0 248.5 -87t76.5 -242v-416q0 -158 80 -244l-69 -67q-43 33 -68 74.5t-39 88.5q-39 -78 -118.5 -122.5 t-200.5 -44.5q-70 0 -130.5 18t-104.5 55t-68.5 92.5t-24.5 126.5zM199 272q0 -102 55.5 -144t155.5 -42q61 0 114.5 17.5t95.5 50t66.5 82t26.5 112.5v121h-199q-57 0 -113.5 -7t-101.5 -28.5t-72.5 -60.5t-27.5 -101z" />
<glyph unicode="b" horiz-adv-x="1132" d="M174 20v1467h113v-600q47 72 127 112.5t180 40.5q104 0 185 -41t137.5 -112.5t85 -166.5t28.5 -206q0 -115 -33.5 -212t-96 -169t-150.5 -112.5t-197 -40.5q-92 0 -163 6t-118 14q-55 8 -98 20zM287 104q37 -4 108.5 -11t155.5 -7q82 0 148.5 30.5t114.5 86t73.5 133.5 t25.5 172q0 82 -20.5 159.5t-60 136t-99 94.5t-139.5 36q-51 0 -102.5 -16.5t-94.5 -49t-73.5 -82t-36.5 -114.5v-568z" />
<glyph unicode="c" horiz-adv-x="890" d="M123 506q0 86 16.5 180t60.5 173t121.5 130t202.5 51q61 0 133 -5t142 -11v-106q-80 6 -158 11t-131 5q-78 0 -130 -35t-83 -93t-44 -135t-13 -159q0 -209 86 -317.5t239 -108.5q72 0 139.5 28.5t133.5 69.5l53 -86q-63 -49 -147.5 -83.5t-182.5 -34.5q-201 0 -319.5 136 t-118.5 390z" />
<glyph unicode="d" horiz-adv-x="1142" d="M102 506q0 115 34 212t96.5 168.5t150.5 112.5t197 41q86 0 153.5 -6t114.5 -12v467h113v-1194q0 -158 79 -244l-69 -67q-47 35 -72 80t-37 96q-43 -86 -127.5 -133t-195.5 -47q-104 0 -185.5 40.5t-137.5 112.5t-85 167t-29 206zM219 512q0 -84 19.5 -161t59.5 -135 t100.5 -94t140.5 -36q53 0 108 18.5t99.5 55.5t73 93t28.5 132v528q-37 4 -108.5 12.5t-157.5 8.5q-82 0 -148.5 -31t-115 -86t-74 -133t-25.5 -172z" />
<glyph unicode="e" d="M123 506q0 106 31.5 202.5t90 170t140.5 117.5t182 44q76 0 143.5 -21.5t118 -61t80 -98t29.5 -130.5q0 -90 -39 -151.5t-101.5 -98.5t-143.5 -53t-167 -16h-241q18 -160 101 -242t243 -82q86 0 163.5 28.5t155.5 69.5l54 -86q-72 -49 -167.5 -83.5t-205.5 -34.5 q-231 0 -349 136t-118 390zM240 516h247q104 0 170 19.5t103 50t49 68.5t12 75q0 96 -70.5 153.5t-183.5 57.5q-74 0 -134 -37t-103 -96t-66.5 -135t-23.5 -156z" />
<glyph unicode="f" horiz-adv-x="804" d="M174 -512v1524q0 104 16.5 194t53.5 155.5t98 103.5t154 38q76 0 132 -23.5t93 -63.5t55.5 -93t18.5 -111q0 -182 -108.5 -290.5t-301.5 -108.5h-98v-221h303v-107h-303v-997h-113zM287 920h98q80 0 135 24.5t91 65.5t51.5 93t15.5 109q0 74 -45 129.5t-137 55.5 q-66 0 -106 -31t-63.5 -83t-31.5 -120.5t-8 -144.5v-98z" />
<glyph unicode="g" horiz-adv-x="1208" d="M51 227q0 53 23.5 95.5t63.5 71t95.5 45t120.5 18.5q-73 89 -73 221q0 88 28.5 154.5t79.5 112.5t122 70.5t155 24.5q39 0 73.5 -5t67.5 -15h338v-105l-187 13q43 -45 68 -106.5t25 -139.5q0 -84 -29 -149.5t-80 -111.5t-121.5 -70.5t-154.5 -24.5q-115 0 -201 43 q-16 2 -32.5 3t-35.5 1q-41 0 -82 -6.5t-74.5 -22.5t-55 -43t-21.5 -68t18.5 -66.5t51 -38.5t78.5 -17.5t100 -4.5q63 0 134.5 3.5t147.5 3.5q86 0 171 -11.5t152.5 -43t108.5 -91t41 -153.5q0 -98 -45 -163t-116.5 -105t-161.5 -56t-180 -16t-177.5 16t-157 56 t-112.5 105.5t-43 162.5q0 66 3 127t7 96q-59 25 -96 69.5t-37 120.5zM287 -186q0 -113 95 -173.5t282 -60.5q68 0 136 9.5t125.5 36t93.5 71.5t36 117q0 61 -32 99t-83 57.5t-118.5 26.5t-137.5 7q-51 0 -112.5 -3t-127.5 -3q-39 0 -76.5 2t-74.5 8q-2 -16 -4 -65t-2 -129z M393 684q0 -115 73 -182.5t198 -67.5q123 0 196.5 67.5t73.5 182.5t-73.5 182.5t-196.5 67.5q-125 0 -198 -67.5t-73 -182.5z" />
<glyph unicode="h" horiz-adv-x="1110" d="M174 0v1487h113v-627q66 92 150.5 136t183.5 44q180 0 262 -86t82 -243q0 -74 -3.5 -134.5t-6.5 -113.5t-5 -102.5t-2 -98.5q0 -68 10.5 -129t38.5 -133h-108q-33 61 -43 138t-10 136q0 49 2 92.5t5 91.5t6 103t3 127q0 127 -57.5 186.5t-173.5 59.5q-111 0 -187 -54.5 t-147 -152.5v-727h-113z" />
<glyph unicode="i" horiz-adv-x="483" d="M113 967l69 67q39 -29 62.5 -64.5t38 -76.5t19.5 -84t5 -86v-723h-112v723q0 82 -20.5 141.5t-61.5 102.5zM139 1356q0 41 28 68.5t66 27.5q41 0 69 -27.5t28 -68.5q0 -39 -28 -66.5t-69 -27.5q-39 0 -66.5 27.5t-27.5 66.5z" />
<glyph unicode="j" horiz-adv-x="487" d="M117 967l69 67q39 -29 62.5 -64.5t38 -76.5t19.5 -84t5 -86v-1235h-112v1235q0 82 -20.5 141.5t-61.5 102.5zM143 1356q0 41 28 68.5t67 27.5q41 0 68.5 -27.5t27.5 -68.5q0 -39 -27.5 -66.5t-68.5 -27.5q-39 0 -67 27.5t-28 66.5z" />
<glyph unicode="k" horiz-adv-x="1079" d="M174 0v1487h113v-649q47 92 126 147t195 55q76 0 140.5 -21.5t111.5 -61t74 -98t27 -130.5q0 -123 -61.5 -191.5t-158.5 -99.5q41 -27 70 -62.5t49 -76.5l137 -299h-127l-110 246q-33 72 -80 116t-133 48h-2h-17h-241v-410h-113zM291 516h237q104 0 167 19.5t95.5 50 t43 68.5t10.5 75q0 96 -61.5 153.5t-174.5 57.5q-74 0 -133 -37t-100 -96t-62.5 -135t-21.5 -156z" />
<glyph unicode="l" horiz-adv-x="501" d="M174 293v1194h113v-1194q0 -82 20.5 -141.5t61.5 -102.5l-70 -67q-39 27 -63.5 63.5t-38 77.5t-18.5 84t-5 86z" />
<glyph unicode="m" horiz-adv-x="1673" d="M102 967l70 67q47 -35 72.5 -81t38.5 -99q55 94 138 140t181 46q100 0 176 -47t111 -143q59 98 145 144t170 46q147 0 236.5 -86t89.5 -243q0 -74 -3 -134.5t-6 -113.5t-6.5 -102.5t-3.5 -98.5q0 -68 10.5 -129t39.5 -133h-109q-33 61 -43 138t-10 136q0 49 2 92.5 t5 91.5t6 103t3 127q0 127 -52 186.5t-157 59.5q-188 0 -295 -203v-20v-711h-112v688q0 129 -54.5 187.5t-154.5 58.5q-41 0 -84 -13.5t-83 -40t-73 -63.5t-53 -84v-10v-723h-113v723q0 82 -20.5 141.5t-61.5 102.5z" />
<glyph unicode="n" horiz-adv-x="1120" d="M102 967l70 67q49 -35 75.5 -85t37.5 -103q68 98 154.5 146t191.5 48q180 0 262 -86t82 -243q0 -74 -3 -134.5t-6 -113.5t-5.5 -102.5t-2.5 -98.5q0 -68 10.5 -129t39.5 -133h-109q-33 61 -43 138t-10 136q0 49 2 92.5t5 91.5t6 103t3 127q0 127 -57 186.5t-174 59.5 q-111 0 -186.5 -54.5t-147.5 -152.5v-4v-723h-113v723q0 82 -20.5 141.5t-61.5 102.5z" />
<glyph unicode="o" horiz-adv-x="1222" d="M102 506q0 115 37 212t103.5 168.5t161 112.5t208.5 41q115 0 208 -39.5t160 -110.5t103.5 -168t36.5 -210q0 -115 -36.5 -213t-103.5 -169t-160 -110.5t-208 -39.5t-209 38.5t-160.5 109.5t-103.5 167t-37 211zM219 512q0 -96 27.5 -175t80 -134.5t124 -86t161.5 -30.5 q88 0 161 32t124 88t79 135t28 175q0 94 -28 171t-79 132t-124 85t-161 30q-90 0 -161.5 -31t-124 -86t-80 -133t-27.5 -172z" />
<glyph unicode="p" horiz-adv-x="1142" d="M102 967l70 67q45 -35 70.5 -78t38.5 -94q43 84 127.5 131t195.5 47q104 0 185 -41t137.5 -112.5t85 -166.5t28.5 -206q0 -115 -33.5 -212t-96 -169t-150.5 -112.5t-197 -40.5q-86 0 -152.5 6t-113.5 12v-510h-113v1235q0 82 -20.5 141.5t-61.5 102.5zM297 104 q37 -4 108.5 -11t155.5 -7q82 0 148.5 30.5t114.5 86t74 133.5t26 172q0 82 -20.5 159.5t-60.5 136t-99.5 94.5t-139.5 36q-51 0 -102 -16.5t-94 -49t-74 -82t-37 -114.5v-568z" />
<glyph unicode="q" horiz-adv-x="1142" d="M113 506q0 115 33.5 212t96 168.5t150.5 112.5t197 41q92 0 162.5 -6t117.5 -14q55 -8 99 -21v-1511h-113v643q-47 -72 -127 -111.5t-180 -39.5q-104 0 -185 40.5t-137.5 112.5t-85 167t-28.5 206zM229 512q0 -84 19.5 -161t59.5 -135t100.5 -94t140.5 -36q49 0 101 16.5 t95 48t74 81t37 116.5v565q-37 6 -108.5 13.5t-155.5 7.5q-82 0 -148.5 -31t-114.5 -86t-74 -133t-26 -172z" />
<glyph unicode="r" horiz-adv-x="745" d="M102 967l70 67q47 -35 73.5 -81t39.5 -99q53 94 124.5 140t174.5 46q23 0 45 -2t39 -6q20 -4 37 -8v-106q-18 2 -41 6q-18 4 -42 6t-53 2q-84 0 -151.5 -53.5t-120.5 -147.5v-8v-723h-113v723q0 82 -20.5 141.5t-61.5 102.5z" />
<glyph unicode="s" horiz-adv-x="854" d="M72 98l57 86q53 -35 130 -66.5t175 -31.5q43 0 83 9t70.5 28.5t48 52.5t17.5 80q0 72 -39 113t-97 68.5t-125.5 50t-126 58.5t-97.5 93t-39 154q0 49 20.5 94t59.5 78.5t94 54t125 20.5q61 0 118.5 -3t127.5 -9v-106q-160 12 -260 12q-80 0 -123 -43t-43 -98 q0 -72 39 -112t97 -67.5t126 -51t126 -59.5t97 -93.5t39 -153.5q0 -76 -29.5 -128t-80 -85t-114 -48t-130.5 -15q-102 0 -192.5 34.5t-153.5 83.5z" />
<glyph unicode="t" horiz-adv-x="815" d="M113 1276l69 67q39 -29 62.5 -64.5t38 -76.5t19.5 -84t5 -86v-12h324v-113h-324v-614q0 -59 12.5 -99t33 -64t49 -34t59.5 -10q37 0 78 11.5t77.5 26.5t66.5 32.5t48 27.5l53 -86q-16 -12 -52 -32.5t-83 -40t-101 -32.5t-108 -13q-49 0 -93 15t-77.5 51t-54 96.5 t-20.5 150.5v739q0 82 -20.5 141.5t-61.5 102.5z" />
<glyph unicode="u" horiz-adv-x="1097" d="M113 999l98 33q18 -29 29.5 -65.5t18.5 -75.5t9 -77t2 -69q0 -49 -3 -93t-6 -91t-5 -102.5t-2 -126.5q0 -127 52 -186.5t169 -59.5q109 0 182.5 56.5t145.5 154.5v723h112v-725q0 -158 80 -244l-69 -67q-51 37 -77 87t-36 107q-128 -198 -336 -198h-2q-178 0 -256 86 t-78 243q0 74 2 134.5t5.5 113.5t6.5 102.5t3 98.5q0 59 -9.5 120.5t-35.5 120.5z" />
<glyph unicode="v" horiz-adv-x="1056" d="M72 999l110 31l215 -751q23 -86 71 -142.5t128 -66.5l303 960l107 -35l-318 -1011q-53 -12 -96 -13q-68 0 -118 23.5t-87 62.5t-61.5 89.5t-38.5 101.5z" />
<glyph unicode="w" horiz-adv-x="1568" d="M92 999l111 31l184 -751q20 -88 61 -143.5t119 -65.5l174 505v445h115v-445l105 -296q29 -84 66.5 -140.5t109.5 -66.5l254 958l106 -35l-266 -1011q-53 -12 -96 -13q-61 0 -108.5 24.5t-81.5 63.5t-57.5 88.5t-37.5 100.5l-53 174l-140 -438q-53 -12 -96 -13 q-66 0 -114 23.5t-81.5 62.5t-55 88.5t-34.5 102.5z" />
<glyph unicode="x" horiz-adv-x="960" d="M92 0l234 545q-47 45 -76 101t-45 104l-92 245l108 33l94 -248q14 -37 30.5 -69.5t41.5 -59t59.5 -47t83.5 -33.5q2 -2 9 -2l204 459l109 -33l-209 -477q59 -41 90 -98.5t49 -110.5l107 -309h-121l-96 279q-31 92 -85.5 137t-146.5 67q-6 0 -14 4l-209 -487h-125z" />
<glyph unicode="y" horiz-adv-x="1056" d="M72 999l110 31l215 -751q25 -86 71 -141.5t124 -65.5l307 958l107 -35l-416 -1302q-35 -109 -121 -168.5t-231 -59.5l-15 101q113 0 173.5 43t86.5 121l78 243q-111 12 -176.5 87t-97.5 188z" />
<glyph unicode="z" horiz-adv-x="940" d="M61 27l605 886h-527v107h719v-27l-559 -815l164 -57q59 -20 116.5 -30.5t125.5 -10.5q84 0 184 72l51 -91q-120 -88 -235 -88q-78 0 -142.5 12.5t-124.5 32.5l-202 66l-86 -125z" />
<glyph unicode="{" horiz-adv-x="714" d="M61 535v112q47 4 84 21q33 12 59.5 37.5t26.5 66.5q0 33 -6 88t-14 119.5t-14.5 132.5t-6.5 127q0 86 33 137t83 80t112.5 45.5t124.5 34.5l28 -94q-61 -16 -109 -31.5t-81 -37t-49.5 -52.5t-16.5 -78q0 -37 6.5 -96.5t14.5 -126t14 -132t6 -116.5q0 -45 -15 -77.5 t-36.5 -54.5t-45 -33t-38.5 -17q14 -4 37 -15.5t44.5 -33t37.5 -54t16 -77.5q0 -51 -6 -118t-14 -132.5t-14.5 -125t-6.5 -95.5q0 -47 16.5 -78t49.5 -52.5t81 -37t109 -31.5l-28 -94q-61 18 -124 34.5t-113 45t-83 80t-33 137.5q0 59 6.5 126.5t14.5 132t14 120t6 88.5 q0 41 -26.5 65.5t-59.5 38.5q-37 14 -84 21z" />
<glyph unicode="|" horiz-adv-x="800" d="M338 -143v1679h125v-1679h-125z" />
<glyph unicode="}" horiz-adv-x="714" d="M143 -260q61 16 109.5 31.5t81.5 37t49 52t16 78.5q0 37 -6 96t-14 124.5t-14.5 132t-6.5 118.5q0 45 15.5 76.5t37 53t45 34t38.5 16.5q-14 4 -37 15t-44.5 32.5t-38 54.5t-16.5 80q0 51 6.5 116.5t14.5 132t14 126t6 96.5q0 47 -16 78t-49 52.5t-81 36.5t-110 32l29 94 q61 -18 123.5 -34.5t113 -45.5t83 -80t32.5 -137q0 -59 -6 -127t-14 -132.5t-14.5 -119.5t-6.5 -88q0 -41 26 -66.5t58 -37.5q37 -16 86 -21v-112q-49 -6 -86 -21q-33 -14 -58.5 -38.5t-25.5 -65.5q0 -33 6.5 -88.5t14.5 -120t14 -132t6 -126.5q0 -86 -32.5 -137.5t-83 -80 t-113 -45t-123.5 -34.5z" />
<glyph unicode="~" d="M113 553q29 84 91 116.5t154 32.5q45 0 90.5 -11t88.5 -24.5t85 -24.5t83 -11q51 0 87.5 14t59.5 60l100 -43q-29 -84 -91 -117t-154 -33q-43 0 -88.5 11.5t-90.5 24.5t-87 24.5t-81 11.5q-51 0 -87.5 -14.5t-59.5 -59.5z" />
<glyph unicode="&#xa1;" horiz-adv-x="552" d="M61 926q0 47 34 80.5t83 33.5q47 0 81 -33.5t34 -80.5t-34 -82t-81 -35q-49 0 -83 35t-34 82zM70 -383q35 209 61 389q12 76 22.5 155t19.5 149.5t14.5 126.5t5.5 91q0 23 -3.5 42.5t-7.5 35.5q-6 18 -10 33l115 25l10 -41q4 -18 7 -42t3 -53q0 -35 -5 -91t-13 -126.5 t-19.5 -149.5t-21.5 -155q-27 -180 -60 -389h-118z" />
<glyph unicode="&#xa2;" horiz-adv-x="1044" d="M154 686q0 82 14 171t54 166t109.5 131t180.5 65v317h125v-317q53 -4 108.5 -7.5t104.5 -7.5v-106l-213 14v-844q66 8 131.5 34t120.5 63l53 -86q-57 -45 -138 -77t-167 -40v-305h-125v309q-166 27 -262 160t-96 360zM270 692q0 -178 62.5 -282.5t179.5 -133.5v836 q-70 -6 -117 -43t-74.5 -94t-39 -130t-11.5 -153z" />
<glyph unicode="&#xa3;" horiz-adv-x="1015" d="M72 621v116h168v256q0 82 23.5 148.5t72.5 115t127 75t186 26.5q61 0 112.5 -5t121.5 -12v-106q-80 6 -137.5 11t-110.5 5q-133 0 -201.5 -67.5t-68.5 -190.5v-256h315v-116h-315v-367q0 -20 -1.5 -37.5t-3.5 -34.5l148 -51q59 -20 116.5 -30.5t125.5 -10.5q84 0 184 72 l51 -101q-121 -88 -235 -88q-78 0 -142.5 12.5t-124.5 32.5l-151 50q-10 -23 -18.5 -40.5t-16.5 -29.5q-8 -14 -16 -25l-105 43q16 27 31 64q12 31 22.5 75t10.5 99v367h-168z" />
<glyph unicode="&#xa4;" horiz-adv-x="1409" d="M123 70l209 209q-96 121 -96 309q0 98 25.5 174t72.5 135l-211 213l88 90l217 -217q57 37 122.5 60.5t151.5 23.5t154 -23.5t125 -60.5l217 217l88 -90l-211 -213q94 -119 94 -307q0 -98 -24.5 -173t-71.5 -134l213 -213l-88 -90l-219 219q-57 -37 -124 -61.5t-153 -24.5 t-152.5 22.5t-123.5 59.5l-215 -215zM365 590q0 -84 24.5 -151.5t68.5 -116t106.5 -75t140.5 -26.5t140 27.5t107 77t68.5 118t23.5 150.5q0 166 -92 264t-247 98q-78 0 -140.5 -26.5t-107.5 -73.5t-68.5 -115.5t-23.5 -150.5z" />
<glyph unicode="&#xa5;" horiz-adv-x="1099" d="M72 1331l121 31l198 -551q35 -92 94.5 -144.5t153.5 -54.5l272 748l117 -35l-295 -809q-23 -6 -54.5 -9t-55.5 -3v-74h225v-98h-225v-90h225v-99h-225v-143h-111v143h-221v99h221v90h-221v98h221v88q-92 31 -152.5 105.5t-89.5 156.5z" />
<glyph unicode="&#xa6;" horiz-adv-x="800" d="M338 -143v757h125v-757h-125zM338 778v758h125v-758h-125z" />
<glyph unicode="&#xa7;" horiz-adv-x="849" d="M133 666q0 66 15.5 109.5t37 71t42 41t30.5 17.5q-29 35 -46 78t-17 98q0 123 108.5 195t306.5 102l27 -108q-82 -16 -140.5 -33.5t-96.5 -39t-55 -49.5t-17 -67q0 -51 28.5 -90t71.5 -71.5t94 -65.5t94 -72t72 -89t29 -118q0 -66 -16.5 -109.5t-38 -71t-42 -41 t-30.5 -17.5q29 -35 47 -78t18 -98q0 -123 -108.5 -194.5t-306.5 -102.5l-27 108q162 33 235.5 72t73.5 117q0 51 -28.5 90t-71.5 71.5t-94.5 65.5t-94.5 72t-71.5 88t-28.5 119zM260 666q0 -41 22.5 -74t57.5 -61.5t78 -55t84 -57.5q29 14 58.5 49.5t29.5 107.5 q0 41 -22.5 73t-57.5 60.5t-78 56.5t-84 58q-29 -16 -58.5 -51t-29.5 -106z" />
<glyph unicode="&#xa8;" d="M215 1356q0 39 26.5 65.5t63.5 26.5q39 0 65.5 -26.5t26.5 -65.5q0 -37 -26.5 -63.5t-65.5 -26.5q-37 0 -63.5 26.5t-26.5 63.5zM668 1356q0 39 26.5 65.5t63.5 26.5q39 0 65.5 -26.5t26.5 -65.5q0 -37 -26.5 -63.5t-65.5 -26.5q-37 0 -63.5 26.5t-26.5 63.5z" />
<glyph unicode="&#xa9;" horiz-adv-x="1568" d="M164 498q0 135 45 249.5t127 198.5t196.5 131t253.5 47q137 0 251 -47t196 -130t127 -196.5t45 -246.5q0 -135 -45 -250t-127 -199t-196 -131t-251 -47q-139 0 -253.5 46t-196.5 128t-127 196.5t-45 250.5zM274 504q0 -119 37 -217.5t104.5 -168t162 -107.5t208.5 -38 q113 0 206 40t161 111t104.5 169t36.5 215t-36.5 213t-104.5 163.5t-161 104.5t-206 37q-115 0 -209 -38t-161.5 -107.5t-104.5 -164.5t-37 -212zM541 504q0 51 10 108.5t37.5 104.5t76 78.5t126.5 31.5q35 0 82 -2t88 -6v-96q-43 4 -89.5 7t-80.5 3q-41 0 -69 -18.5 t-44 -50t-23.5 -72.5t-7.5 -84q0 -111 46 -170t130 -59q35 0 74 16t78 43l45 -78q-43 -31 -96.5 -53.5t-112.5 -22.5q-123 0 -196.5 83t-73.5 237z" />
<glyph unicode="&#xaa;" horiz-adv-x="630" d="M82 1016q0 47 21.5 78.5t56.5 51t78 28t88 8.5h80v49q0 53 -28 82.5t-81 29.5q-39 0 -75 -14t-70 -35l-46 72q39 23 91.5 43.5t99.5 20.5q104 0 152.5 -49.5t48.5 -139.5v-213q0 -37 14 -71.5t37 -61.5l-51 -53q-37 29 -53.5 58.5t-20.5 62.5q-16 -51 -59 -85t-113 -34 q-72 0 -121 43t-49 129zM176 1016q0 -41 27.5 -65.5t68.5 -24.5q47 0 84 54t47 126h-77q-27 0 -53.5 -4t-48 -14.5t-35 -28t-13.5 -43.5z" />
<glyph unicode="&#xab;" horiz-adv-x="1259" d="M123 514q0 43 65 98l422 377l76 -84l-442 -391l442 -391l-76 -84l-422 377q-66 55 -65 98zM553 514q0 43 65 98l422 377l76 -84l-442 -391l442 -391l-76 -84l-422 377q-66 55 -65 98z" />
<glyph unicode="&#xac;" horiz-adv-x="901" d="M82 541v118h737v-358h-127v240h-610z" />
<glyph unicode="&#xad;" horiz-adv-x="802" d="M102 565v119h598v-119h-598z" />
<glyph unicode="&#xae;" horiz-adv-x="1568" d="M164 860q0 135 45 250t127 199t196.5 131t253.5 47q137 0 251 -47t196 -130t127 -197t45 -247q0 -135 -45 -249.5t-127 -198.5t-196 -131t-251 -47q-139 0 -253.5 46t-196.5 128t-127 196.5t-45 249.5zM274 866q0 -119 37 -217t104.5 -167.5t162 -107.5t208.5 -38 q113 0 206 40t161 110.5t104.5 169t36.5 214.5q0 117 -36.5 213.5t-104.5 164t-161 104.5t-206 37q-115 0 -209 -38t-161.5 -107.5t-104.5 -165t-37 -212.5zM479 1194l60 59q49 -49 120 -49q20 0 62.5 5t71.5 5q109 0 174 -60t65 -155q0 -63 -37 -111t-84 -65 q31 -12 51.5 -36.5t32.5 -53.5l78 -188l-96 -41l-66 174q-16 45 -56 82t-116 37h-45v-305h-98v624q-31 8 -60.5 25.5t-56.5 52.5zM694 879h119q51 0 86 31.5t35 88.5q0 55 -39 88t-104 33q-18 0 -36 -2t-32 -4q-16 -2 -29 -4v-231z" />
<glyph unicode="&#xaf;" d="M199 1284v117h667v-117h-667z" />
<glyph unicode="&#xb0;" horiz-adv-x="747" d="M102 1083q0 59 19.5 110.5t54.5 88.5t85 57.5t112 20.5q123 0 197.5 -76t74.5 -197t-73.5 -198.5t-196.5 -77.5t-198 76t-75 196zM213 1085q0 -78 44 -126t116 -48t117 48.5t45 125.5q0 78 -44 126.5t-116 48.5t-117 -48.5t-45 -126.5z" />
<glyph unicode="&#xb1;" horiz-adv-x="966" d="M102 0v106h762v-106h-762zM102 549v104h324v328h115v-328h323v-104h-323v-330h-115v330h-324z" />
<glyph unicode="&#xb2;" horiz-adv-x="573" d="M82 848v10q0 51 15.5 91t39 72t54 56.5t61.5 46.5q47 33 82 67t35 75q0 82 -86 82q-10 0 -33 -1t-47.5 -2.5t-50 -2.5t-41.5 -1v86q18 2 40.5 3.5t46 2.5t44 2t34.5 1q98 0 140.5 -47.5t42.5 -124.5q0 -37 -13.5 -68t-35 -56.5t-50 -48t-57.5 -42.5q-35 -23 -64.5 -50.5 t-45.5 -62.5h299v-88h-410z" />
<glyph unicode="&#xb3;" horiz-adv-x="548" d="M82 856v88q27 -4 55 -6q23 -4 51.5 -5t51.5 -1q59 0 90.5 21.5t31.5 74.5q0 29 -15 54.5t-34 43.5q-45 -14 -110 -14h-37v90h41q49 0 90 12.5t41 61.5q0 74 -88 74q-14 0 -46 -1t-61 -3q-10 0 -28.5 -1.5t-26.5 -1.5v87q39 4 86 5t72 1q98 0 139 -42t41 -120 q0 -61 -33 -100q23 -25 43.5 -62t20.5 -88q0 -92 -58.5 -136t-156.5 -44q-23 0 -50.5 1t-52.5 5q-29 2 -57 6z" />
<glyph unicode="&#xb4;" d="M334 1231l323 256l74 -101l-352 -225z" />
<glyph unicode="&#xb5;" horiz-adv-x="1132" d="M174 -512v1532h113v-688h2q0 -127 52 -186.5t169 -59.5q109 0 182.5 56.5t145.5 154.5v723h112v-725q0 -158 80 -244l-69 -67q-51 37 -77 87t-36 107q-129 -199 -338 -198q-74 0 -128 14t-95 43v-549h-113z" />
<glyph unicode="&#xb6;" horiz-adv-x="919" d="M41 883q0 209 127 295t391 86h44.5t49 -1t66.5 -2t98 -4v-1411h-119v1295h-168v-1295h-120v666q-186 23 -277.5 110t-91.5 261z" />
<glyph unicode="&#xb7;" horiz-adv-x="600" d="M184 659q0 47 34 82t81 35q49 0 83 -34.5t34 -82.5q0 -47 -34 -80.5t-83 -33.5q-47 0 -81 33.5t-34 80.5z" />
<glyph unicode="&#xb8;" horiz-adv-x="1705" d="M506 0h108v-135q51 -6 87 -38t36 -85q0 -66 -33.5 -139.5t-111.5 -128.5l-70 67q18 20 37 40t33 39.5t23.5 43t9.5 51.5q0 27 -13.5 40.5t-32 19.5t-39 8t-34.5 6v211z" />
<glyph unicode="&#xb9;" horiz-adv-x="501" d="M82 1292l18 80q20 -4 28.5 -5t14.5 -1q59 0 107.5 22.5t95.5 53.5l12 -8v-586h-98v457q-27 -12 -52.5 -19.5t-53.5 -7.5q-16 0 -33 2t-39 12z" />
<glyph unicode="&#xba;" horiz-adv-x="714" d="M72 1135q0 63 20.5 118.5t57 94t89 61.5t117.5 23q66 0 119 -21.5t90 -60.5t57.5 -93.5t20.5 -117.5q0 -66 -20.5 -120t-57.5 -94t-90 -62.5t-119 -22.5t-118 22.5t-88.5 61.5t-57 93t-20.5 118zM172 1139q0 -92 50 -149.5t134 -57.5q86 0 137.5 58.5t51.5 150.5 t-51.5 145t-137.5 53q-84 0 -134 -54t-50 -146z" />
<glyph unicode="&#xbb;" horiz-adv-x="1259" d="M143 123l443 391l-443 391l76 84l422 -377q66 -55 66 -98t-66 -98l-422 -377zM573 123l443 391l-443 391l76 84l422 -377q66 -55 66 -98t-66 -98l-422 -377z" />
<glyph unicode="&#xbc;" horiz-adv-x="1423" d="M184 1208l19 80q20 -4 28.5 -5t14.5 -1q59 0 107 22.5t96 53.5l12 -8v-586h-99v457q-27 -12 -52 -19.5t-54 -7.5q-16 0 -32.5 2t-39.5 12zM451 0l448 1337h119l-447 -1337h-120zM985 193l53 380h92l-40 -290h198v290h94v-573h-94v193h-303z" />
<glyph unicode="&#xbd;" horiz-adv-x="1398" d="M184 1208l19 80q20 -4 28.5 -5t14.5 -1q49 0 91 16.5t83 40.5l29 19l12 -8v-586h-99v457q-27 -12 -52 -19.5t-54 -7.5q-16 0 -32.5 2t-39.5 12zM451 0l448 1337h119l-447 -1337h-120zM948 0v10q0 51 15.5 91t39 72t54 56.5t61.5 46.5q47 33 82 67t35 75q0 82 -86 82 q-10 0 -32.5 -1t-47.5 -2t-50.5 -2t-41.5 -1v86q18 2 40.5 3t46 2t44 2t35.5 1q98 0 140 -47t42 -125q0 -37 -13.5 -68t-35 -56.5t-50 -48t-57.5 -42.5q-35 -23 -64.5 -50.5t-45.5 -62.5h299v-88h-410z" />
<glyph unicode="&#xbe;" horiz-adv-x="1462" d="M205 768v88q27 -4 55 -6q23 -4 51.5 -5t50.5 -1q59 0 91 21.5t32 74.5q0 29 -15 54.5t-34 43.5q-45 -14 -110 -14h-37v90h41q49 0 90 12.5t41 61.5q0 74 -88 74q-14 0 -46 -1t-61 -4q-10 0 -28.5 -1t-26.5 -1v86q39 4 86 5.5t72 1.5q98 0 139 -42t41 -120q0 -61 -33 -101 q23 -25 43.5 -61.5t20.5 -87.5q0 -92 -58.5 -136t-156.5 -44q-23 0 -50.5 1t-52.5 5q-29 2 -57 6zM489 0l449 1337h119l-447 -1337h-121zM1024 193l53 380h92l-41 -290h199v290h94v-573h-94v193h-303z" />
<glyph unicode="&#xbf;" horiz-adv-x="880" d="M20 -35q0 86 33 146.5t81 105.5t105.5 79t105.5 66.5t81 71.5t33 94q0 23 -3 42.5t-7 35.5l-11 33l121 25l10 -41q4 -18 7.5 -42t3.5 -53q0 -80 -33 -133t-82 -93t-106.5 -70.5t-106.5 -67.5t-82 -85t-33 -120q0 -123 68.5 -190.5t202.5 -67.5q27 0 72.5 1t99 4t105.5 5 t93 6v-106q-35 -4 -83 -6t-99 -5t-97 -4.5t-77 -1.5q-109 0 -185.5 28t-125 77t-70 116.5t-21.5 149.5zM319 926q0 47 34 80.5t83 33.5q47 0 81 -33.5t34 -80.5t-34 -82t-81 -35q-49 0 -83 35t-34 82z" />
<glyph unicode="&#xc0;" horiz-adv-x="1300" d="M20 0l609 1440h39l612 -1440h-131l-199 465h-604l-194 -465h-132zM254 1573l37 119l397 -129l-24 -82zM395 582h506l-203 477q-16 39 -29.5 83t-21.5 77q-8 -35 -20.5 -79t-28.5 -81z" />
<glyph unicode="&#xc1;" horiz-adv-x="1300" d="M20 0l609 1440h39l612 -1440h-131l-199 465h-604l-194 -465h-132zM395 582h506l-203 477q-16 39 -29.5 83t-21.5 77q-8 -35 -20.5 -79t-28.5 -81zM606 1563l398 129l36 -119l-409 -92z" />
<glyph unicode="&#xc2;" horiz-adv-x="1300" d="M20 0l609 1440h39l612 -1440h-131l-199 465h-604l-194 -465h-132zM328 1546l223 211q29 29 52.5 47.5t45.5 18.5q23 0 46.5 -18.5t52.5 -47.5l223 -209l-76 -75l-246 229l-246 -232zM395 582h506l-203 477q-16 39 -29.5 83t-21.5 77q-8 -35 -20.5 -79t-28.5 -81z" />
<glyph unicode="&#xc3;" horiz-adv-x="1300" d="M20 0l609 1440h39l612 -1440h-131l-199 465h-604l-194 -465h-132zM236 1612q29 84 91 116.5t154 32.5q45 0 90 -11t88 -24.5t85 -24.5t83 -11q51 0 88 14t60 59l100 -43q-29 -84 -91 -116.5t-155 -32.5q-43 0 -88 11t-90 24.5t-87 24.5t-81 11q-51 0 -88 -14t-59 -59z M395 582h506l-203 477q-16 39 -29.5 83t-21.5 77q-8 -35 -20.5 -79t-28.5 -81z" />
<glyph unicode="&#xc4;" horiz-adv-x="1300" d="M20 0l609 1440h39l612 -1440h-131l-199 465h-604l-194 -465h-132zM328 1665q0 39 26.5 65.5t63.5 26.5q39 0 65.5 -26.5t26.5 -65.5q0 -37 -26.5 -63.5t-65.5 -26.5q-37 0 -63.5 26.5t-26.5 63.5zM395 582h506l-203 477q-16 39 -29.5 83t-21.5 77q-8 -35 -20.5 -79 t-28.5 -81zM780 1665q0 39 27 65.5t63 26.5q39 0 66 -26.5t27 -65.5q0 -37 -27 -63.5t-66 -26.5q-37 0 -63.5 26.5t-26.5 63.5z" />
<glyph unicode="&#xc5;" horiz-adv-x="1300" d="M20 0l574 1358q-72 16 -112 70.5t-40 132.5q0 92 55.5 152.5t151.5 60.5q92 0 149.5 -58.5t57.5 -150.5q0 -78 -41 -134.5t-113 -72.5l578 -1358h-131l-199 465h-604l-194 -465h-132zM395 582h506l-203 477q-16 39 -29.5 83t-21.5 77q-8 -35 -20.5 -79t-28.5 -81z M543 1563q0 -53 23.5 -86t70.5 -37h20q47 4 73 36.5t26 86.5q0 53 -27 86.5t-78 33.5t-79.5 -33.5t-28.5 -86.5z" />
<glyph unicode="&#xc6;" horiz-adv-x="1802" d="M0 0l735 1401h965v-117h-793v-485h649v-117h-649v-565h834v-117h-959v465h-393l-239 -465h-150zM449 582h333v694q-6 -25 -22.5 -74t-48.5 -115z" />
<glyph unicode="&#xc7;" horiz-adv-x="1318" d="M123 700q0 154 49 285t137 228.5t212 152.5t274 55q221 0 331.5 -77.5t110.5 -206.5q0 -57 -24.5 -105.5t-79 -84.5t-138.5 -55.5t-200 -19.5h-529q-18 -80 -18 -172h-125zM123 700h125q0 -135 29.5 -246.5t88 -191.5t145.5 -125t202 -45q63 0 131.5 17.5t131 42t114 52 t84.5 48.5l53 -92q-31 -25 -79 -53.5t-110.5 -55t-135.5 -46t-152 -23.5v-117q51 -6 86.5 -38t35.5 -85q0 -66 -33.5 -139.5t-111.5 -128.5l-70 67q18 20 37 40t33 39.5t23.5 43t9.5 51.5q0 27 -13.5 40.5t-32 19.5t-39 8t-34.5 6v195q-133 12 -231.5 72.5t-162 155.5 t-94 220t-30.5 268zM299 979h496q92 0 152.5 10t96 30.5t50 50.5t14.5 67q0 86 -79.5 129t-233.5 43q-174 0 -302 -88t-194 -242z" />
<glyph unicode="&#xc8;" horiz-adv-x="1214" d="M195 0v1401h917v-117h-793v-485h650v-117h-650v-565h834v-117h-958zM279 1571l36 119l398 -129l-25 -82z" />
<glyph unicode="&#xc9;" horiz-adv-x="1214" d="M195 0v1401h917v-117h-793v-485h650v-117h-650v-565h834v-117h-958zM631 1561l397 129l37 -119l-410 -92z" />
<glyph unicode="&#xca;" horiz-adv-x="1214" d="M195 0v1401h917v-117h-793v-485h650v-117h-650v-565h834v-117h-958zM352 1544l223 211q29 29 52.5 47.5t46.5 18.5t46 -18.5t52 -47.5l223 -209l-75 -76l-246 230l-246 -232z" />
<glyph unicode="&#xcb;" horiz-adv-x="1214" d="M195 0v1401h917v-117h-793v-485h650v-117h-650v-565h834v-117h-958zM352 1663q0 39 27 65.5t63 26.5q39 0 66 -26.5t27 -65.5q0 -37 -27 -63.5t-66 -26.5q-37 0 -63.5 26.5t-26.5 63.5zM805 1663q0 39 26.5 65.5t63.5 26.5q39 0 65.5 -26.5t26.5 -65.5q0 -37 -26.5 -63.5 t-65.5 -26.5q-37 0 -63.5 26.5t-26.5 63.5z" />
<glyph unicode="&#xcc;" horiz-adv-x="514" d="M-139 1573l37 119l397 -129l-25 -82zM195 0v1401h124v-1401h-124z" />
<glyph unicode="&#xcd;" horiz-adv-x="514" d="M195 0v1401h124v-1401h-124zM213 1563l397 129l37 -119l-409 -92z" />
<glyph unicode="&#xce;" horiz-adv-x="514" d="M-66 1546l224 211q29 29 52 47.5t46 18.5t46.5 -18.5t51.5 -47.5l224 -209l-76 -75l-246 229l-246 -232zM195 0v1401h124v-1401h-124z" />
<glyph unicode="&#xcf;" horiz-adv-x="514" d="M-66 1665q0 39 27 65.5t64 26.5q39 0 65.5 -26.5t26.5 -65.5q0 -37 -27 -63.5t-65 -26.5q-37 0 -64 26.5t-27 63.5zM195 0v1401h124v-1401h-124zM387 1665q0 39 26.5 65.5t63.5 26.5q39 0 65.5 -26.5t26.5 -65.5q0 -37 -26.5 -63.5t-65.5 -26.5q-37 0 -63.5 26.5 t-26.5 63.5z" />
<glyph unicode="&#xd0;" horiz-adv-x="1595" d="M20 797v116h234v379q-66 10 -124 37t-99 84l67 70q43 -41 102.5 -61.5t141.5 -20.5q96 0 193.5 10t226.5 10q164 0 295 -55t223 -152.5t142.5 -228.5t50.5 -285t-50.5 -285.5t-142.5 -228t-223 -151.5t-295 -55q-158 0 -257 3t-155 7q-68 4 -96 10v797h-234zM379 102 q63 -4 156.5 -7t226.5 -3q135 0 243.5 44t185.5 125t118 192.5t41 246.5t-41 247t-118 192t-185.5 125t-243.5 45q-113 0 -205 -9.5t-178 -11.5v-375h250v-116h-250v-695z" />
<glyph unicode="&#xd1;" horiz-adv-x="1564" d="M195 0v1421h38l945 -1126q14 -16 30.5 -35.5t38.5 -40.5q-4 41 -6 84t-2 84v1016h125v-1272q25 -14 51.5 -25.5t57.5 -17.5l-31 -92q-74 14 -131.5 43t-104.5 63.5t-85 73.5t-68 76l-586 680q-37 41 -80 100.5t-82 116.5q4 -53 9 -111.5t5 -105.5v-932h-124zM365 1612 q29 84 91 116.5t154 32.5q45 0 90 -11t88 -24.5t85 -24.5t83 -11q51 0 88 14t60 59l100 -43q-29 -84 -91 -116.5t-155 -32.5q-43 0 -88 11t-90 24.5t-87 24.5t-81 11q-51 0 -88 -14t-59 -59z" />
<glyph unicode="&#xd2;" horiz-adv-x="1628" d="M123 700q0 154 49 286t140 228.5t218 151.5t285 55q129 0 236.5 -10t203.5 -10q82 0 141.5 20.5t102.5 61.5l68 -70q-47 -66 -119 -93.5t-145 -31.5q31 -41 66.5 -99.5t66 -132t50 -162.5t19.5 -194q0 -154 -49 -285.5t-140 -228t-218 -151.5t-283 -55q-158 0 -285 55 t-218 152.5t-140 228.5t-49 284zM248 700q0 -135 41 -246.5t115.5 -191.5t179 -125t231.5 -45t231.5 44t179 125t115.5 192.5t41 246.5q0 129 -30.5 230.5t-70.5 176.5t-79 121t-55 62q-76 4 -159 11.5t-175 7.5q-127 0 -231.5 -44t-178 -125t-114.5 -192.5t-41 -247.5z M428 1571l37 119l397 -129l-24 -82z" />
<glyph unicode="&#xd3;" horiz-adv-x="1628" d="M123 700q0 154 49 286t140 228.5t218 151.5t285 55q129 0 236.5 -10t203.5 -10q82 0 141.5 20.5t102.5 61.5l68 -70q-47 -66 -119 -93.5t-145 -31.5q31 -41 66.5 -99.5t66 -132t50 -162.5t19.5 -194q0 -154 -49 -285.5t-140 -228t-218 -151.5t-283 -55q-158 0 -285 55 t-218 152.5t-140 228.5t-49 284zM248 700q0 -135 41 -246.5t115.5 -191.5t179 -125t231.5 -45t231.5 44t179 125t115.5 192.5t41 246.5q0 129 -30.5 230.5t-70.5 176.5t-79 121t-55 62q-76 4 -159 11.5t-175 7.5q-127 0 -231.5 -44t-178 -125t-114.5 -192.5t-41 -247.5z M780 1561l398 129l36 -119l-409 -92z" />
<glyph unicode="&#xd4;" horiz-adv-x="1628" d="M123 700q0 154 49 286t140 228.5t218 151.5t285 55q129 0 236.5 -10t203.5 -10q82 0 141.5 20.5t102.5 61.5l68 -70q-47 -66 -119 -93.5t-145 -31.5q31 -41 66.5 -99.5t66 -132t50 -162.5t19.5 -194q0 -154 -49 -285.5t-140 -228t-218 -151.5t-283 -55q-158 0 -285 55 t-218 152.5t-140 228.5t-49 284zM248 700q0 -135 41 -246.5t115.5 -191.5t179 -125t231.5 -45t231.5 44t179 125t115.5 192.5t41 246.5q0 129 -30.5 230.5t-70.5 176.5t-79 121t-55 62q-76 4 -159 11.5t-175 7.5q-127 0 -231.5 -44t-178 -125t-114.5 -192.5t-41 -247.5z M502 1544l223 211q29 29 52.5 47.5t45.5 18.5q23 0 46.5 -18.5t52.5 -47.5l223 -209l-76 -76l-246 230l-245 -232z" />
<glyph unicode="&#xd5;" horiz-adv-x="1628" d="M123 700q0 154 49 286t140 228.5t218 151.5t285 55q129 0 236.5 -10t203.5 -10q82 0 141.5 20.5t102.5 61.5l68 -70q-47 -66 -119 -93.5t-145 -31.5q31 -41 66.5 -99.5t66 -132t50 -162.5t19.5 -194q0 -154 -49 -285.5t-140 -228t-218 -151.5t-283 -55q-158 0 -285 55 t-218 152.5t-140 228.5t-49 284zM248 700q0 -135 41 -246.5t115.5 -191.5t179 -125t231.5 -45t231.5 44t179 125t115.5 192.5t41 246.5q0 129 -30.5 230.5t-70.5 176.5t-79 121t-55 62q-76 4 -159 11.5t-175 7.5q-127 0 -231.5 -44t-178 -125t-114.5 -192.5t-41 -247.5z M410 1610q29 84 91 116.5t154 32.5q45 0 90.5 -11t88.5 -24.5t85 -24.5t82 -11q51 0 88 14t60 59l100 -43q-29 -84 -91 -116.5t-154 -32.5q-43 0 -88.5 11t-90.5 24.5t-87 24.5t-81 11q-51 0 -88 -14t-59 -59z" />
<glyph unicode="&#xd6;" horiz-adv-x="1628" d="M123 700q0 154 49 286t140 228.5t218 151.5t285 55q129 0 236.5 -10t203.5 -10q82 0 141.5 20.5t102.5 61.5l68 -70q-47 -66 -119 -93.5t-145 -31.5q31 -41 66.5 -99.5t66 -132t50 -162.5t19.5 -194q0 -154 -49 -285.5t-140 -228t-218 -151.5t-283 -55q-158 0 -285 55 t-218 152.5t-140 228.5t-49 284zM248 700q0 -135 41 -246.5t115.5 -191.5t179 -125t231.5 -45t231.5 44t179 125t115.5 192.5t41 246.5q0 129 -30.5 230.5t-70.5 176.5t-79 121t-55 62q-76 4 -159 11.5t-175 7.5q-127 0 -231.5 -44t-178 -125t-114.5 -192.5t-41 -247.5z M502 1663q0 39 26.5 65.5t63.5 26.5q39 0 65.5 -26.5t26.5 -65.5q0 -37 -26.5 -63.5t-65.5 -26.5q-37 0 -63.5 26.5t-26.5 63.5zM954 1663q0 39 27 65.5t63 26.5q39 0 66 -26.5t27 -65.5q0 -37 -27 -63.5t-66 -26.5q-37 0 -63.5 26.5t-26.5 63.5z" />
<glyph unicode="&#xd7;" horiz-adv-x="1028" d="M123 238l305 305l-291 293l88 88l291 -293l291 293l84 -84l-291 -291l305 -305l-88 -88l-305 305l-305 -307z" />
<glyph unicode="&#xd8;" horiz-adv-x="1628" d="M123 700q0 154 49 286t140 228.5t218 151.5t285 55q129 0 236.5 -10t203.5 -10q82 0 141.5 20.5t102.5 61.5l68 -70q-47 -66 -119 -93.5t-145 -31.5q31 -41 66.5 -99.5t66 -132t50 -162.5t19.5 -194q0 -154 -49 -285.5t-140 -228t-218 -151.5t-283 -55q-98 0 -185 22.5 t-163 63.5l-61 -109l-101 61l74 107q-123 98 -189.5 246.5t-66.5 328.5zM248 700q0 -152 50 -272.5t142 -202.5l690 1067q-72 4 -151.5 10.5t-165.5 6.5q-127 0 -231.5 -44t-178 -125t-114.5 -193t-41 -247zM537 160q59 -33 129.5 -50.5t148.5 -17.5q127 0 231.5 44t179 125 t115.5 192.5t41 246.5q0 90 -15 167t-39.5 141.5t-54.5 115t-56 86.5z" />
<glyph unicode="&#xd9;" horiz-adv-x="1464" d="M184 547v854h125v-854q0 -106 31 -190.5t86 -142.5t133 -90t172 -32t173 32t134.5 90t86 142t30.5 191v854h125v-854q0 -127 -39 -230.5t-111.5 -179.5t-173 -116.5t-223.5 -40.5q-125 0 -226 40.5t-173 116.5t-111 179.5t-39 230.5zM338 1573l37 119l397 -129l-24 -82z " />
<glyph unicode="&#xda;" horiz-adv-x="1464" d="M184 547v854h125v-854q0 -106 31 -190.5t86 -142.5t133 -90t172 -32t173 32t134.5 90t86 142t30.5 191v854h125v-854q0 -127 -39 -230.5t-111.5 -179.5t-173 -116.5t-223.5 -40.5q-125 0 -226 40.5t-173 116.5t-111 179.5t-39 230.5zM690 1563l397 129l37 -119l-409 -92z " />
<glyph unicode="&#xdb;" horiz-adv-x="1464" d="M184 547v854h125v-854q0 -106 31 -190.5t86 -142.5t133 -90t172 -32t173 32t134.5 90t86 142t30.5 191v854h125v-854q0 -127 -39 -230.5t-111.5 -179.5t-173 -116.5t-223.5 -40.5q-125 0 -226 40.5t-173 116.5t-111 179.5t-39 230.5zM412 1546l223 211q29 29 52.5 47.5 t45.5 18.5q23 0 46.5 -18.5t51.5 -47.5l224 -209l-76 -75l-246 229l-246 -232z" />
<glyph unicode="&#xdc;" horiz-adv-x="1464" d="M184 547v854h125v-854q0 -106 31 -190.5t86 -142.5t133 -90t172 -32t173 32t134.5 90t86 142t30.5 191v854h125v-854q0 -127 -39 -230.5t-111.5 -179.5t-173 -116.5t-223.5 -40.5q-125 0 -226 40.5t-173 116.5t-111 179.5t-39 230.5zM412 1665q0 39 26.5 65.5t63.5 26.5 q39 0 65.5 -26.5t26.5 -65.5q0 -37 -26.5 -63.5t-65.5 -26.5q-37 0 -63.5 26.5t-26.5 63.5zM864 1665q0 39 27 65.5t63 26.5q39 0 66 -26.5t27 -65.5q0 -37 -27 -63.5t-66 -26.5q-37 0 -63.5 26.5t-26.5 63.5z" />
<glyph unicode="&#xdd;" horiz-adv-x="1089" d="M72 1393l121 30l198 -592q29 -92 90.5 -144t155.5 -54l274 788l117 -35l-295 -849q-23 -4 -51.5 -8.5t-52.5 -4.5v-524h-125v541q-92 31 -149.5 104.5t-84.5 155.5zM526 1563l398 129l37 -119l-410 -92z" />
<glyph unicode="&#xde;" horiz-adv-x="1081" d="M195 0v1401h124v-260q51 4 126.5 9t138.5 5q96 0 175 -34t134 -94t86 -141t31 -175q0 -96 -31 -177t-86 -141.5t-134 -94.5t-175 -34h-70t-76 1t-68.5 1h-50.5v-266h-124zM319 379h48t69 -1t75 -1h67q70 0 127 24.5t98 68.5t63.5 105.5t22.5 135.5t-22.5 134t-63.5 104 t-98 68.5t-127 24.5q-57 0 -132 -5t-127 -9v-649z" />
<glyph unicode="&#xdf;" horiz-adv-x="1048" d="M174 -512v1524q0 104 16.5 194t53.5 155.5t98 103.5t154 38q154 0 226.5 -74.5t72.5 -195.5q0 -76 -31 -121t-69 -78t-68.5 -62.5t-30.5 -76.5q0 -66 28.5 -105.5t70.5 -70.5t91.5 -58.5t91.5 -70.5t70.5 -106.5t28.5 -166.5q0 -76 -27.5 -138t-80 -106t-125 -68.5 t-162.5 -24.5q-96 0 -172 6t-123 10v-508h-113zM287 102q23 -4 97.5 -10t213.5 -6q125 0 192.5 62.5t67.5 168.5q0 78 -28.5 126.5t-71.5 83t-93.5 62t-93.5 65.5t-71.5 94.5t-28.5 146.5q0 74 33 117t70.5 74.5t70.5 63.5t33 83q0 74 -45 119t-137 45q-66 0 -106 -31 t-63.5 -83t-31.5 -120.5t-8 -144.5v-916z" />
<glyph unicode="&#xe0;" horiz-adv-x="1028" d="M102 272q0 86 38 143.5t99.5 93.5t138.5 50t157 14h198v115q0 127 -51 186.5t-162 59.5q-82 0 -166 -35t-137 -76l-55 86q59 53 156.5 92t201.5 39q172 0 249 -87t77 -242v-416q0 -158 80 -244l-70 -67q-43 33 -67.5 74.5t-38.5 88.5q-39 -78 -119 -122.5t-201 -44.5 q-70 0 -130 18t-104 55t-69 92.5t-25 126.5zM182 1386l74 101l324 -256l-45 -70zM219 272q0 -102 55.5 -144t155.5 -42q61 0 114.5 17.5t95.5 50t66.5 82t26.5 112.5v121h-198q-57 0 -113.5 -7t-102 -28.5t-73 -60.5t-27.5 -101z" />
<glyph unicode="&#xe1;" horiz-adv-x="1028" d="M102 272q0 86 38 143.5t99.5 93.5t138.5 50t157 14h198v115q0 127 -51 186.5t-162 59.5q-82 0 -166 -35t-137 -76l-55 86q59 53 156.5 92t201.5 39q172 0 249 -87t77 -242v-416q0 -158 80 -244l-70 -67q-43 33 -67.5 74.5t-38.5 88.5q-39 -78 -119 -122.5t-201 -44.5 q-70 0 -130 18t-104 55t-69 92.5t-25 126.5zM219 272q0 -102 55.5 -144t155.5 -42q61 0 116.5 18.5t97.5 53.5t65.5 86t23.5 118v107h-198q-57 0 -113.5 -7t-102 -28.5t-73 -60.5t-27.5 -101zM463 1231l323 256l74 -101l-352 -225z" />
<glyph unicode="&#xe2;" horiz-adv-x="1028" d="M102 272q0 86 38 143.5t99.5 93.5t138.5 50t157 14h198v115q0 127 -51 186.5t-162 59.5q-82 0 -166 -35t-137 -76l-55 86q59 53 156.5 92t201.5 39q172 0 249 -87t77 -242v-416q0 -158 80 -244l-70 -67q-43 33 -67.5 74.5t-38.5 88.5q-39 -78 -119 -122.5t-201 -44.5 q-70 0 -130 18t-104 55t-69 92.5t-25 126.5zM199 1255l223 252q55 66 98 66t98 -66l224 -250l-76 -67l-246 272l-246 -274zM219 272q0 -102 55.5 -144t155.5 -42q61 0 116.5 18.5t97.5 53.5t65.5 86t23.5 118v107h-198q-57 0 -113.5 -7t-102 -28.5t-73 -60.5t-27.5 -101z " />
<glyph unicode="&#xe3;" horiz-adv-x="1028" d="M102 272q0 86 38 143.5t99.5 93.5t138.5 50t157 14h198v115q0 127 -51 186.5t-162 59.5q-82 0 -166 -35t-137 -76l-55 86q59 53 156.5 92t201.5 39q172 0 249 -87t77 -242v-416q0 -158 80 -244l-70 -67q-43 33 -67.5 74.5t-38.5 88.5q-39 -78 -119 -122.5t-201 -44.5 q-70 0 -130 18t-104 55t-69 92.5t-25 126.5zM115 1284q29 84 91 117t154 33q45 0 84 -11.5t75 -25t71 -24.5t76 -11q51 0 88 14.5t59 59.5l100 -37q-29 -84 -91 -117t-154 -33q-43 0 -82 11.5t-76 24.5t-73 24.5t-75 11.5q-51 0 -87.5 -14.5t-59.5 -59.5zM219 272 q0 -102 55.5 -144t155.5 -42q61 0 114.5 17.5t95.5 50t66.5 82t26.5 112.5v121h-198q-57 0 -113.5 -7t-102 -28.5t-73 -60.5t-27.5 -101z" />
<glyph unicode="&#xe4;" horiz-adv-x="1028" d="M102 272q0 86 38 143.5t99.5 93.5t138.5 50t157 14h198v115q0 127 -51 186.5t-162 59.5q-82 0 -166 -35t-137 -76l-55 86q59 53 156.5 92t201.5 39q172 0 249 -87t77 -242v-416q0 -158 80 -244l-70 -67q-43 33 -67.5 74.5t-38.5 88.5q-39 -78 -119 -122.5t-201 -44.5 q-70 0 -130 18t-104 55t-69 92.5t-25 126.5zM201 1356q0 39 26.5 65.5t63.5 26.5q39 0 65.5 -26.5t26.5 -65.5q0 -37 -26.5 -63.5t-65.5 -26.5q-37 0 -63.5 26.5t-26.5 63.5zM219 272q0 -102 55.5 -144t155.5 -42q61 0 116.5 18.5t97.5 53.5t65.5 86t23.5 118v107h-198 q-57 0 -113.5 -7t-102 -28.5t-73 -60.5t-27.5 -101zM653 1356q0 39 27 65.5t63 26.5q39 0 66 -26.5t27 -65.5q0 -37 -27 -63.5t-66 -26.5q-37 0 -63.5 26.5t-26.5 63.5z" />
<glyph unicode="&#xe5;" horiz-adv-x="1028" d="M102 272q0 86 38 143.5t99.5 93.5t138.5 50t157 14h198v115q0 127 -51 186.5t-162 59.5q-82 0 -166 -35t-137 -76l-55 86q59 53 156.5 92t201.5 39q172 0 249 -87t77 -242v-416q0 -158 80 -244l-70 -67q-43 33 -67.5 74.5t-38.5 88.5q-39 -78 -119 -122.5t-201 -44.5 q-70 0 -130 18t-104 55t-69 92.5t-25 126.5zM219 272q0 -102 55.5 -144t155.5 -42q61 0 116.5 18.5t97.5 53.5t65.5 86t23.5 118v107h-198q-57 0 -113.5 -7t-102 -28.5t-73 -60.5t-27.5 -101zM311 1329q0 92 55.5 152.5t151.5 60.5q92 0 149.5 -58.5t57.5 -150.5 t-56.5 -152.5t-150.5 -60.5q-96 0 -151.5 58.5t-55.5 150.5zM412 1331q0 -55 26.5 -89t77.5 -34t80 34t29 89q0 53 -27 87t-78 34t-79.5 -34t-28.5 -87z" />
<glyph unicode="&#xe6;" horiz-adv-x="1671" d="M102 272q0 86 38 143.5t99.5 93.5t138.5 50t157 14h198v115q0 127 -51 186.5t-162 59.5q-82 0 -166 -35t-137 -76l-55 86q59 53 156.5 92t201.5 39q137 0 208 -61t95 -160q53 98 141.5 159.5t209.5 61.5q76 0 143 -21.5t117.5 -61t80 -98t29.5 -130.5q0 -90 -39 -151.5 t-101.5 -98.5t-143 -53t-166.5 -16h-242q18 -160 101 -242t243 -82q86 0 164 28.5t156 69.5l53 -86q-72 -49 -167 -83.5t-206 -34.5q-160 0 -259 64.5t-146 188.5q-20 -111 -114.5 -182t-246.5 -71q-70 0 -130 18t-104 55t-69 92.5t-25 126.5zM219 272q0 -102 55.5 -144 t155.5 -42q61 0 116.5 18.5t97.5 53.5t65.5 86t23.5 118v107h-198q-57 0 -113.5 -7t-102 -28.5t-73 -60.5t-27.5 -101zM846 516h248q104 0 169.5 19.5t102.5 50t49 68.5t12 75q0 96 -70 153.5t-183 57.5q-74 0 -134.5 -37t-103.5 -96t-66.5 -135t-23.5 -156z" />
<glyph unicode="&#xe7;" horiz-adv-x="890" d="M123 506q0 86 16.5 180t60.5 173t121.5 130t202.5 51q61 0 133 -5t142 -11v-106q-80 6 -158 11t-131 5q-78 0 -130 -35t-83 -93t-44 -135t-13 -159q0 -209 86 -317.5t239 -108.5q72 0 139.5 28.5t133.5 69.5l53 -86q-59 -45 -134 -77.5t-161 -38.5v-117q51 -6 87 -38 t36 -85q0 -66 -34 -139.5t-112 -128.5l-69 67q18 20 36.5 40t33 39.5t23.5 43t9 51.5q0 27 -13 40.5t-31.5 19.5t-39 8t-35.5 6v197q-170 23 -267 156.5t-97 363.5z" />
<glyph unicode="&#xe8;" d="M123 506q0 106 31.5 202.5t90 170t140.5 117.5t182 44q76 0 143.5 -21.5t118 -61t80 -98t29.5 -130.5q0 -90 -39 -151.5t-101.5 -98.5t-143.5 -53t-167 -16h-241q18 -160 101 -242t243 -82q86 0 163.5 28.5t155.5 69.5l54 -86q-72 -49 -167.5 -83.5t-205.5 -34.5 q-231 0 -349 136t-118 390zM229 1386l74 101l324 -256l-45 -70zM240 516h247q104 0 170 19.5t103 50t49 68.5t12 75q0 96 -70.5 153.5t-183.5 57.5q-74 0 -134 -37t-103 -96t-66.5 -135t-23.5 -156z" />
<glyph unicode="&#xe9;" d="M123 506q0 106 31.5 202.5t90 170t140.5 117.5t182 44q76 0 143.5 -21.5t118 -61t80 -98t29.5 -130.5q0 -90 -39 -151.5t-101.5 -98.5t-143.5 -53t-167 -16h-241q18 -160 101 -242t243 -82q86 0 163.5 28.5t155.5 69.5l54 -86q-72 -49 -167.5 -83.5t-205.5 -34.5 q-231 0 -349 136t-118 390zM240 516h247q104 0 170 19.5t103 50t49 68.5t12 75q0 96 -70.5 153.5t-183.5 57.5q-74 0 -134 -37t-103 -96t-66.5 -135t-23.5 -156zM510 1231l324 256l73 -101l-352 -225z" />
<glyph unicode="&#xea;" d="M123 506q0 106 31.5 202.5t90 170t140.5 117.5t182 44q76 0 143.5 -21.5t118 -61t80 -98t29.5 -130.5q0 -90 -39 -151.5t-101.5 -98.5t-143.5 -53t-167 -16h-241q18 -160 101 -242t243 -82q86 0 163.5 28.5t155.5 69.5l54 -86q-72 -49 -167.5 -83.5t-205.5 -34.5 q-231 0 -349 136t-118 390zM240 516h247q104 0 170 19.5t103 50t49 68.5t12 75q0 96 -70.5 153.5t-183.5 57.5q-74 0 -134 -37t-103 -96t-66.5 -135t-23.5 -156zM246 1255l223 252q55 66 98 66t99 -66l223 -250l-76 -67l-246 272l-245 -274z" />
<glyph unicode="&#xeb;" d="M123 506q0 106 31.5 202.5t90 170t140.5 117.5t182 44q76 0 143.5 -21.5t118 -61t80 -98t29.5 -130.5q0 -90 -39 -151.5t-101.5 -98.5t-143.5 -53t-167 -16h-241q18 -160 101 -242t243 -82q86 0 163.5 28.5t155.5 69.5l54 -86q-72 -49 -167.5 -83.5t-205.5 -34.5 q-231 0 -349 136t-118 390zM240 516h247q104 0 170 19.5t103 50t49 68.5t12 75q0 96 -70.5 153.5t-183.5 57.5q-74 0 -134 -37t-103 -96t-66.5 -135t-23.5 -156zM248 1356q0 39 26.5 65.5t63.5 26.5q39 0 65.5 -26.5t26.5 -65.5q0 -37 -26.5 -63.5t-65.5 -26.5 q-37 0 -63.5 26.5t-26.5 63.5zM700 1356q0 39 27 65.5t64 26.5q39 0 65.5 -26.5t26.5 -65.5q0 -37 -27 -63.5t-65 -26.5q-37 0 -64 26.5t-27 63.5z" />
<glyph unicode="&#xec;" horiz-adv-x="481" d="M-33 1432l103 67l184 -303l-68 -49zM113 967l69 67q39 -29 62.5 -64.5t38 -76.5t19.5 -84t5 -86v-723h-112v723q0 82 -20.5 141.5t-61.5 102.5z" />
<glyph unicode="&#xed;" horiz-adv-x="481" d="M109 1196l184 303l102 -67l-219 -285zM113 967l69 67q39 -29 62.5 -64.5t38 -76.5t19.5 -84t5 -86v-723h-112v723q0 82 -20.5 141.5t-61.5 102.5z" />
<glyph unicode="&#xee;" horiz-adv-x="481" d="M-33 1255l183 252q47 66 98 66t98 -66l182 -250l-86 -61l-194 262l-193 -262zM113 967l69 67q39 -29 62.5 -64.5t38 -76.5t19.5 -84t5 -86v-723h-112v723q0 82 -20.5 141.5t-61.5 102.5z" />
<glyph unicode="&#xef;" horiz-adv-x="481" d="M-78 1356q0 39 26.5 65.5t63.5 26.5q39 0 65.5 -26.5t26.5 -65.5q0 -37 -26.5 -63.5t-65.5 -26.5q-37 0 -63.5 26.5t-26.5 63.5zM113 967l69 67q39 -29 62.5 -64.5t38 -76.5t19.5 -84t5 -86v-723h-112v723q0 82 -20.5 141.5t-61.5 102.5zM252 1356q0 39 26.5 65.5 t63.5 26.5q39 0 65.5 -26.5t26.5 -65.5q0 -37 -26.5 -63.5t-65.5 -26.5q-37 0 -63.5 26.5t-26.5 63.5z" />
<glyph unicode="&#xf0;" horiz-adv-x="1202" d="M102 506q0 115 37 212t103.5 168.5t161 112.5t208.5 41q37 0 99.5 -6t117.5 -16l-51 151h-225v113h186l-61 182l119 37l71 -219h232v-113h-193l105 -313q35 -98 50 -189.5t15 -170.5q0 -121 -32.5 -216.5t-94 -162t-147.5 -102t-191 -35.5q-115 0 -209 38.5t-160.5 109.5 t-103.5 167t-37 211zM219 512q0 -96 27.5 -175t80 -134.5t124 -86t161.5 -30.5q86 0 150.5 30.5t107.5 84t65.5 125t22.5 155.5q0 82 -16 170t-47 178l-27 74q-29 6 -64.5 11.5t-72.5 10.5t-68.5 7t-50.5 2q-90 0 -161.5 -31t-124 -86t-80 -133t-27.5 -172z" />
<glyph unicode="&#xf1;" horiz-adv-x="1120" d="M102 967l70 67q49 -35 75.5 -85t37.5 -103q68 98 154.5 146t191.5 48q180 0 262 -86t82 -243q0 -74 -3 -134.5t-6 -113.5t-5.5 -102.5t-2.5 -98.5q0 -68 10.5 -129t39.5 -133h-109q-33 61 -43 138t-10 136q0 49 2 92.5t5 91.5t6 103t3 127q0 127 -57 186.5t-174 59.5 q-111 0 -186.5 -54.5t-147.5 -152.5v-4v-723h-113v723q0 82 -20.5 141.5t-61.5 102.5zM160 1284q29 84 91 117t155 33q45 0 83.5 -11.5t74.5 -25t71 -24.5t76 -11q51 0 88 14.5t59 59.5l100 -37q-29 -84 -91 -117t-154 -33q-43 0 -82 11.5t-76 24.5t-73 24.5t-74 11.5 q-51 0 -88 -14.5t-60 -59.5z" />
<glyph unicode="&#xf2;" horiz-adv-x="1222" d="M102 506q0 115 37 212t103.5 168.5t161 112.5t208.5 41q115 0 208 -39.5t160 -110.5t103.5 -168t36.5 -210q0 -115 -36.5 -213t-103.5 -169t-160 -110.5t-208 -39.5t-209 38.5t-160.5 109.5t-103.5 167t-37 211zM219 512q0 -96 27.5 -175t80 -134.5t124 -86t161.5 -30.5 q88 0 161 32t124 88t79 135t28 175q0 94 -28 171t-79 132t-124 85t-161 30q-90 0 -161.5 -31t-124 -86t-80 -133t-27.5 -172zM274 1386l74 101l324 -256l-45 -70z" />
<glyph unicode="&#xf3;" horiz-adv-x="1222" d="M102 506q0 115 37 212t103.5 168.5t161 112.5t208.5 41q115 0 208 -39.5t160 -110.5t103.5 -168t36.5 -210q0 -115 -36.5 -213t-103.5 -169t-160 -110.5t-208 -39.5t-209 38.5t-160.5 109.5t-103.5 167t-37 211zM219 512q0 -96 27.5 -175t80 -134.5t124 -86t161.5 -30.5 q88 0 161 32t124 88t79 135t28 175q0 94 -28 171t-79 132t-124 85t-161 30q-90 0 -161.5 -31t-124 -86t-80 -133t-27.5 -172zM555 1231l324 256l73 -101l-352 -225z" />
<glyph unicode="&#xf4;" horiz-adv-x="1222" d="M102 506q0 115 37 212t103.5 168.5t161 112.5t208.5 41q115 0 208 -39.5t160 -110.5t103.5 -168t36.5 -210q0 -115 -36.5 -213t-103.5 -169t-160 -110.5t-208 -39.5t-209 38.5t-160.5 109.5t-103.5 167t-37 211zM219 512q0 -96 27.5 -175t80 -134.5t124 -86t161.5 -30.5 q88 0 161 32t124 88t79 135t28 175q0 94 -28 171t-79 132t-124 85t-161 30q-90 0 -161.5 -31t-124 -86t-80 -133t-27.5 -172zM291 1255l223 252q55 66 98 66t99 -66l223 -250l-76 -67l-246 272l-245 -274z" />
<glyph unicode="&#xf5;" horiz-adv-x="1222" d="M102 506q0 115 37 212t103.5 168.5t161 112.5t208.5 41q115 0 208 -39.5t160 -110.5t103.5 -168t36.5 -210q0 -115 -36.5 -213t-103.5 -169t-160 -110.5t-208 -39.5t-209 38.5t-160.5 109.5t-103.5 167t-37 211zM211 1284q29 84 91.5 117t154.5 33q45 0 84 -11.5 t74.5 -25t70.5 -24.5t76 -11q51 0 88 14.5t59 59.5l101 -37q-29 -84 -91.5 -117t-154.5 -33q-43 0 -82 11.5t-76 24.5t-72.5 24.5t-74.5 11.5q-51 0 -88 -14.5t-60 -59.5zM219 512q0 -96 27.5 -175t80 -134.5t124 -86t161.5 -30.5q88 0 161 32t124 88t79 135t28 175 q0 94 -28 171t-79 132t-124 85t-161 30q-90 0 -161.5 -31t-124 -86t-80 -133t-27.5 -172z" />
<glyph unicode="&#xf6;" horiz-adv-x="1222" d="M102 506q0 115 37 212t103.5 168.5t161 112.5t208.5 41q115 0 208 -39.5t160 -110.5t103.5 -168t36.5 -210q0 -115 -36.5 -213t-103.5 -169t-160 -110.5t-208 -39.5t-209 38.5t-160.5 109.5t-103.5 167t-37 211zM219 512q0 -96 27.5 -175t80 -134.5t124 -86t161.5 -30.5 q88 0 161 32t124 88t79 135t28 175q0 94 -28 171t-79 132t-124 85t-161 30q-90 0 -161.5 -31t-124 -86t-80 -133t-27.5 -172zM293 1356q0 39 26.5 65.5t63.5 26.5q39 0 65.5 -26.5t26.5 -65.5q0 -37 -26.5 -63.5t-65.5 -26.5q-37 0 -63.5 26.5t-26.5 63.5zM745 1356 q0 39 27 65.5t64 26.5q39 0 65.5 -26.5t26.5 -65.5q0 -37 -27 -63.5t-65 -26.5q-37 0 -64 26.5t-27 63.5z" />
<glyph unicode="&#xf7;" horiz-adv-x="966" d="M102 549v104h762v-104h-762zM387 293q0 41 27.5 68.5t66.5 27.5q41 0 69 -27.5t28 -68.5q0 -39 -28 -66.5t-69 -27.5q-39 0 -66.5 27.5t-27.5 66.5zM387 905q0 41 27.5 68.5t66.5 27.5q41 0 69 -27.5t28 -68.5q0 -39 -28 -66.5t-69 -27.5q-39 0 -66.5 27.5t-27.5 66.5z " />
<glyph unicode="&#xf8;" horiz-adv-x="1222" d="M102 506q0 115 37 212t103.5 168.5t161 112.5t208.5 41q68 0 127.5 -14t112.5 -41l47 78l100 -62l-55 -77q84 -72 130 -177.5t46 -234.5q0 -115 -36.5 -213t-103.5 -169t-160 -110.5t-208 -39.5q-70 0 -130 14t-113 41l-45 -78l-101 61l53 76q-84 72 -129 177.5 t-45 234.5zM219 512q0 -213 113 -326l461 713q-81 35 -181 35q-90 0 -161.5 -31t-124 -86t-80 -133t-27.5 -172zM430 121q39 -18 84 -26.5t98 -8.5q88 0 161 32t124 88t79 135t28 175q0 209 -113 318z" />
<glyph unicode="&#xf9;" horiz-adv-x="1097" d="M113 999l98 33q18 -29 29.5 -65.5t18.5 -75.5t9 -77t2 -69q0 -49 -3 -93t-6 -91t-5 -102.5t-2 -126.5q0 -127 52 -186.5t169 -59.5q109 0 182.5 56.5t145.5 154.5v723h112v-725q0 -158 80 -244l-69 -67q-51 37 -77 87t-36 107q-129 -199 -338 -198q-178 0 -256 86 t-78 243q0 74 2 134.5t5.5 113.5t6.5 102.5t3 98.5q0 59 -9.5 120.5t-35.5 120.5zM205 1386l74 101l323 -256l-45 -70z" />
<glyph unicode="&#xfa;" horiz-adv-x="1097" d="M113 999l98 33q18 -29 29.5 -65.5t18.5 -75.5t9 -77t2 -69q0 -49 -3 -93t-6 -91t-5 -102.5t-2 -126.5q0 -127 52 -186.5t169 -59.5q109 0 182.5 56.5t145.5 154.5v723h112v-725q0 -158 80 -244l-69 -67q-51 37 -77 87t-36 107q-129 -199 -338 -198q-178 0 -256 86 t-78 243q0 74 2 134.5t5.5 113.5t6.5 102.5t3 98.5q0 59 -9.5 120.5t-35.5 120.5zM485 1231l324 256l74 -101l-353 -225z" />
<glyph unicode="&#xfb;" horiz-adv-x="1097" d="M113 999l98 33q18 -29 29.5 -65.5t18.5 -75.5t9 -77t2 -69q0 -49 -3 -93t-6 -91t-5 -102.5t-2 -126.5q0 -127 52 -186.5t169 -59.5q109 0 182.5 56.5t145.5 154.5v723h112v-725q0 -158 80 -244l-69 -67q-51 37 -77 87t-36 107q-129 -199 -338 -198q-178 0 -256 86 t-78 243q0 74 2 134.5t5.5 113.5t6.5 102.5t3 98.5q0 59 -9.5 120.5t-35.5 120.5zM221 1255l223 252q55 66 99 66q43 0 98 -66l223 -250l-76 -67l-245 272l-246 -274z" />
<glyph unicode="&#xfc;" horiz-adv-x="1097" d="M113 999l98 33q18 -29 29.5 -65.5t18.5 -75.5t9 -77t2 -69q0 -49 -3 -93t-6 -91t-5 -102.5t-2 -126.5q0 -127 52 -186.5t169 -59.5q109 0 182.5 56.5t145.5 154.5v723h112v-725q0 -158 80 -244l-69 -67q-51 37 -77 87t-36 107q-129 -199 -338 -198q-178 0 -256 86 t-78 243q0 74 2 134.5t5.5 113.5t6.5 102.5t3 98.5q0 59 -9.5 120.5t-35.5 120.5zM223 1356q0 39 26.5 65.5t63.5 26.5q39 0 66 -26.5t27 -65.5q0 -37 -27 -63.5t-66 -26.5q-37 0 -63.5 26.5t-26.5 63.5zM676 1356q0 39 26.5 65.5t63.5 26.5q39 0 65.5 -26.5t26.5 -65.5 q0 -37 -26.5 -63.5t-65.5 -26.5q-37 0 -63.5 26.5t-26.5 63.5z" />
<glyph unicode="&#xfd;" horiz-adv-x="1056" d="M72 999l110 31l215 -751q25 -86 71 -141.5t124 -65.5l307 958l107 -35l-416 -1302q-35 -109 -121 -168.5t-231 -59.5l-15 101q113 0 173.5 43t86.5 121l78 243q-111 12 -176.5 87t-97.5 188zM504 1231l323 256l74 -101l-352 -225z" />
<glyph unicode="&#xfe;" horiz-adv-x="1091" d="M174 0v1487h113v-592q45 68 119.5 106.5t166.5 38.5q100 0 177 -32.5t130.5 -90t81 -133t27.5 -163.5q0 -92 -32.5 -169t-92 -134.5t-143.5 -89t-186 -31.5q-78 0 -140.5 5t-107.5 11v-213h-113zM287 324q35 -4 101.5 -12.5t143.5 -8.5q76 0 139.5 22.5t107.5 64.5 t68.5 99.5t24.5 126.5q0 61 -18 119t-56 102t-94.5 70.5t-130.5 26.5q-47 0 -93 -14.5t-86 -45t-68.5 -75.5t-38.5 -107v-368z" />
<glyph unicode="&#xff;" horiz-adv-x="1056" d="M72 999l110 31l215 -751q25 -86 71 -141.5t124 -65.5l307 958l107 -35l-416 -1302q-35 -109 -121 -168.5t-231 -59.5l-15 101q113 0 173.5 43t86.5 121l78 243q-111 12 -176.5 87t-97.5 188zM242 1356q0 39 26.5 65.5t63.5 26.5q39 0 65.5 -26.5t26.5 -65.5 q0 -37 -26.5 -63.5t-65.5 -26.5q-37 0 -63.5 26.5t-26.5 63.5zM694 1356q0 39 27 65.5t63 26.5q39 0 66 -26.5t27 -65.5q0 -37 -27 -63.5t-66 -26.5q-37 0 -63.5 26.5t-26.5 63.5z" />
<glyph unicode="&#x152;" horiz-adv-x="2084" d="M123 700q0 154 49 286t140 228.5t218 151.5t285 55q43 0 117 -1t162 -4t183 -5t180 -5t150.5 -4t98.5 -1q82 0 141.5 20.5t102.5 61.5l67 -70q-29 -39 -64.5 -63.5t-76.5 -38t-84 -18.5t-86 -5q-27 0 -81 1t-123.5 3t-150.5 4t-161 4v-501h649v-117h-649v-565h833v-117 h-800q-72 -6 -144 -10q-61 -4 -133 -7t-131 -3q-158 0 -285 55t-218 152.5t-140 228.5t-49 284zM248 700q0 -135 41 -246.5t115.5 -191.5t179 -125t231.5 -45q70 0 136.5 4t113.5 10v1199q-82 2 -147.5 3t-104.5 1q-127 0 -231.5 -44t-178 -125t-114.5 -192.5t-41 -247.5z " />
<glyph unicode="&#x153;" horiz-adv-x="1933" d="M102 506q0 115 37 212t103.5 168.5t161 112.5t208.5 41q162 0 274.5 -77.5t168.5 -206.5q47 125 144 204.5t237 79.5q76 0 143.5 -21.5t117.5 -61t79.5 -98t29.5 -130.5q0 -90 -38.5 -151.5t-101 -98.5t-143.5 -53t-167 -16h-240q18 -160 100 -242t242 -82q86 0 164 28.5 t156 69.5l53 -86q-72 -49 -167 -83.5t-206 -34.5q-164 0 -264 68.5t-147 199.5q-57 -123 -168 -195.5t-267 -72.5q-115 0 -209 38.5t-160.5 109.5t-103.5 167t-37 211zM219 512q0 -96 27.5 -175t80 -134.5t124 -86t161.5 -30.5q88 0 161 32t124 88t79 135t28 175 q0 94 -28 171t-79 132t-124 85t-161 30q-90 0 -161.5 -31t-124 -86t-80 -133t-27.5 -172zM1110 516h246q104 0 169.5 19.5t102.5 50t49.5 68.5t12.5 75q0 96 -70.5 153.5t-183.5 57.5q-74 0 -134.5 -37t-102.5 -96t-65.5 -135t-23.5 -156z" />
<glyph unicode="&#x178;" horiz-adv-x="1089" d="M72 1393l121 30l198 -592q29 -92 90.5 -144t155.5 -54l274 788l117 -35l-295 -849q-23 -4 -51.5 -8.5t-52.5 -4.5v-524h-125v541q-92 31 -149.5 104.5t-84.5 155.5zM248 1665q0 39 26.5 65.5t63.5 26.5q39 0 65.5 -26.5t26.5 -65.5q0 -37 -26.5 -63.5t-65.5 -26.5 q-37 0 -63.5 26.5t-26.5 63.5zM700 1665q0 39 27 65.5t64 26.5q39 0 65.5 -26.5t26.5 -65.5q0 -37 -27 -63.5t-65 -26.5q-37 0 -64 26.5t-27 63.5z" />
<glyph unicode="&#x2c6;" d="M211 1255l223 252q55 66 98 66t99 -66l223 -250l-76 -67l-246 272l-245 -274z" />
<glyph unicode="&#x2dc;" d="M133 1284q29 84 91.5 117t154.5 33q45 0 84 -11.5t74.5 -25t70.5 -24.5t76 -11q51 0 88 14.5t59 59.5l101 -37q-29 -84 -91.5 -117t-154.5 -33q-43 0 -82 11.5t-75.5 24.5t-72.5 24.5t-75 11.5q-51 0 -88 -14.5t-60 -59.5z" />
<glyph unicode="&#x2000;" horiz-adv-x="911" />
<glyph unicode="&#x2001;" horiz-adv-x="1823" />
<glyph unicode="&#x2002;" horiz-adv-x="911" />
<glyph unicode="&#x2003;" horiz-adv-x="1823" />
<glyph unicode="&#x2004;" horiz-adv-x="607" />
<glyph unicode="&#x2005;" horiz-adv-x="455" />
<glyph unicode="&#x2006;" horiz-adv-x="303" />
<glyph unicode="&#x2007;" horiz-adv-x="303" />
<glyph unicode="&#x2008;" horiz-adv-x="227" />
<glyph unicode="&#x2009;" horiz-adv-x="364" />
<glyph unicode="&#x200a;" horiz-adv-x="101" />
<glyph unicode="&#x2010;" horiz-adv-x="1017" d="M205 567v117h608v-117h-608z" />
<glyph unicode="&#x2011;" horiz-adv-x="1017" d="M205 567v117h608v-117h-608z" />
<glyph unicode="&#x2012;" horiz-adv-x="1017" d="M205 567v117h608v-117h-608z" />
<glyph unicode="&#x2013;" horiz-adv-x="874" d="M0 567v117h874v-117h-874z" />
<glyph unicode="&#x2014;" horiz-adv-x="1202" d="M0 567v117h1202v-117h-1202z" />
<glyph unicode="&#x2018;" horiz-adv-x="509" d="M174 1010v123q0 86 33 171t110 140l70 -68q-41 -43 -61.5 -102.5t-20.5 -140.5v-123q0 -29 -18.5 -48.5t-46.5 -19.5q-29 0 -47.5 19.5t-18.5 48.5z" />
<glyph unicode="&#x2019;" horiz-adv-x="509" d="M123 989q41 43 61.5 102.5t20.5 141.5v123q0 29 18.5 48t46.5 19q29 0 47.5 -19.5t18.5 -47.5v-123q0 -86 -33 -171t-110 -140z" />
<glyph unicode="&#x201a;" horiz-adv-x="509" d="M123 -260q41 43 61.5 102.5t20.5 141.5v122q0 29 18.5 48.5t46.5 19.5q29 0 47.5 -19.5t18.5 -48.5v-122q0 -86 -33 -171t-110 -141z" />
<glyph unicode="&#x201c;" horiz-adv-x="765" d="M174 1010v123q0 86 33 171t110 140l70 -68q-41 -43 -61.5 -102.5t-20.5 -140.5v-123q0 -29 -18.5 -48.5t-46.5 -19.5q-29 0 -47.5 19.5t-18.5 48.5zM430 1010v123q0 86 33 171t110 140l70 -68q-41 -43 -61.5 -102.5t-20.5 -140.5v-123q0 -29 -18.5 -48.5t-46.5 -19.5 q-29 0 -47.5 19.5t-18.5 48.5z" />
<glyph unicode="&#x201d;" horiz-adv-x="765" d="M123 989q41 43 61.5 102.5t20.5 141.5v123q0 29 18.5 48t46.5 19q29 0 47.5 -19.5t18.5 -47.5v-123q0 -86 -33 -171t-110 -140zM379 989q41 43 61.5 102.5t20.5 141.5v123q0 29 18.5 48t46.5 19q29 0 47.5 -19.5t18.5 -47.5v-123q0 -86 -33 -171t-110 -140z" />
<glyph unicode="&#x201e;" horiz-adv-x="765" d="M123 -260q41 43 61.5 102.5t20.5 141.5v122q0 29 18.5 48.5t46.5 19.5q29 0 47.5 -19.5t18.5 -48.5v-122q0 -86 -33 -171t-110 -141zM379 -260q41 43 61.5 102.5t20.5 141.5v122q0 29 18.5 48.5t46.5 19.5q29 0 47.5 -19.5t18.5 -48.5v-122q0 -86 -33 -171t-110 -141z " />
<glyph unicode="&#x2022;" horiz-adv-x="755" d="M205 643q0 72 51 123t121 51q74 0 124 -51t50 -123t-50 -122t-124 -50q-35 0 -65.5 13.5t-54.5 37t-38 54t-14 67.5z" />
<glyph unicode="&#x202f;" horiz-adv-x="364" />
<glyph unicode="&#x2039;" horiz-adv-x="829" d="M123 514q0 43 65 98l422 377l76 -84l-442 -391l442 -391l-76 -84l-422 377q-66 55 -65 98z" />
<glyph unicode="&#x203a;" horiz-adv-x="829" d="M143 123l443 391l-443 391l76 84l422 -377q66 -55 66 -98t-66 -98l-422 -377z" />
<glyph unicode="&#x205f;" horiz-adv-x="455" />
<glyph unicode="&#x20ac;" horiz-adv-x="1091" d="M41 485l22 107h134q-2 20 -2 39.5v42.5v37h-154l22 106h138q12 123 50 223.5t103.5 171t161.5 109.5t227 39q51 0 103.5 -3t122.5 -9v-113q-63 4 -117.5 8t-108.5 4q-102 0 -176.5 -28.5t-125 -84t-78 -135t-37.5 -182.5h505l-18 -106h-494v-37v-42.5t3 -39.5h473 l-17 -107h-446q29 -184 126 -288.5t285 -104.5q94 0 162 26.5t133 67.5l54 -92q-63 -49 -143.5 -81.5t-205.5 -32.5q-127 0 -221 35.5t-158.5 102t-103.5 160t-53 207.5h-166z" />
<glyph unicode="&#xe000;" horiz-adv-x="1024" d="M0 0v1024h1024v-1024h-1024z" />
</font>
</defs>
</svg>
